# Tiled2Unity generated file. Do not modify by hand.
# Wavefront file for 'center_village_mesh_0007.obj'

# Vertices (Count = 544)
v 0 -1 0
v -1 -1 0
v -1 0 0
v 0 0 0
v -1 -1 0
v -2 -1 0
v -2 0 0
v -1 0 0
v -2 -1 0
v -3 -1 0
v -3 0 0
v -2 0 0
v -3 -1 0
v -4 -1 0
v -4 0 0
v -3 0 0
v -4 -1 0
v -5 -1 0
v -5 0 0
v -4 0 0
v -5 -1 0
v -6 -1 0
v -6 0 0
v -5 0 0
v -6 -1 0
v -7 -1 0
v -7 0 0
v -6 0 0
v -7 -1 0
v -8 -1 0
v -8 0 0
v -7 0 0
v -8 -1 0
v -9 -1 0
v -9 0 0
v -8 0 0
v -9 -1 0
v -10 -1 0
v -10 0 0
v -9 0 0
v -10 -1 0
v -11 -1 0
v -11 0 0
v -10 0 0
v -11 -1 0
v -12 -1 0
v -12 0 0
v -11 0 0
v -12 -1 0
v -13 -1 0
v -13 0 0
v -12 0 0
v -13 -1 0
v -14 -1 0
v -14 0 0
v -13 0 0
v -14 -1 0
v -15 -1 0
v -15 0 0
v -14 0 0
v -15 -1 0
v -16 -1 0
v -16 0 0
v -15 0 0
v -16 -1 0
v -17 -1 0
v -17 0 0
v -16 0 0
v -17 -1 0
v -18 -1 0
v -18 0 0
v -17 0 0
v -18 -1 0
v -19 -1 0
v -19 0 0
v -18 0 0
v -19 -1 0
v -20 -1 0
v -20 0 0
v -19 0 0
v -20 -1 0
v -21 -1 0
v -21 0 0
v -20 0 0
v -21 -1 0
v -22 -1 0
v -22 0 0
v -21 0 0
v -22 -1 0
v -23 -1 0
v -23 0 0
v -22 0 0
v -23 -1 0
v -24 -1 0
v -24 0 0
v -23 0 0
v -24 -1 0
v -25 -1 0
v -25 0 0
v -24 0 0
v -25 -1 0
v -26 -1 0
v -26 0 0
v -25 0 0
v -26 -1 0
v -27 -1 0
v -27 0 0
v -26 0 0
v -27 -1 0
v -28 -1 0
v -28 0 0
v -27 0 0
v -28 -1 0
v -29 -1 0
v -29 0 0
v -28 0 0
v -29 -1 0
v -30 -1 0
v -30 0 0
v -29 0 0
v -30 -1 0
v -31 -1 0
v -31 0 0
v -30 0 0
v -31 -1 0
v -32 -1 0
v -32 0 0
v -31 0 0
v -32 -1 0
v -33 -1 0
v -33 0 0
v -32 0 0
v -33 -1 0
v -34 -1 0
v -34 0 0
v -33 0 0
v -36 -1 0
v -37 -1 0
v -37 0 0
v -36 0 0
v -37 -1 0
v -38 -1 0
v -38 0 0
v -37 0 0
v -38 -1 0
v -39 -1 0
v -39 0 0
v -38 0 0
v -39 -1 0
v -40 -1 0
v -40 0 0
v -39 0 0
v -40 -1 0
v -41 -1 0
v -41 0 0
v -40 0 0
v -41 -1 0
v -42 -1 0
v -42 0 0
v -41 0 0
v -42 -1 0
v -43 -1 0
v -43 0 0
v -42 0 0
v -43 -1 0
v -44 -1 0
v -44 0 0
v -43 0 0
v -44 -1 0
v -45 -1 0
v -45 0 0
v -44 0 0
v -45 -1 0
v -46 -1 0
v -46 0 0
v -45 0 0
v -46 -1 0
v -47 -1 0
v -47 0 0
v -46 0 0
v -47 -1 0
v -48 -1 0
v -48 0 0
v -47 0 0
v -48 -1 0
v -49 -1 0
v -49 0 0
v -48 0 0
v -49 -1 0
v -50 -1 0
v -50 0 0
v -49 0 0
v -50 -1 0
v -51 -1 0
v -51 0 0
v -50 0 0
v -51 -1 0
v -52 -1 0
v -52 0 0
v -51 0 0
v -52 -1 0
v -53 -1 0
v -53 0 0
v -52 0 0
v -53 -1 0
v -54 -1 0
v -54 0 0
v -53 0 0
v -54 -1 0
v -55 -1 0
v -55 0 0
v -54 0 0
v -55 -1 0
v -56 -1 0
v -56 0 0
v -55 0 0
v -56 -1 0
v -57 -1 0
v -57 0 0
v -56 0 0
v -57 -1 0
v -58 -1 0
v -58 0 0
v -57 0 0
v -58 -1 0
v -59 -1 0
v -59 0 0
v -58 0 0
v -59 -1 0
v -60 -1 0
v -60 0 0
v -59 0 0
v -60 -1 0
v -61 -1 0
v -61 0 0
v -60 0 0
v -61 -1 0
v -62 -1 0
v -62 0 0
v -61 0 0
v -62 -1 0
v -63 -1 0
v -63 0 0
v -62 0 0
v -63 -1 0
v -64 -1 0
v -64 0 0
v -63 0 0
v -64 -1 0
v -65 -1 0
v -65 0 0
v -64 0 0
v -65 -1 0
v -66 -1 0
v -66 0 0
v -65 0 0
v -66 -1 0
v -67 -1 0
v -67 0 0
v -66 0 0
v -67 -1 0
v -68 -1 0
v -68 0 0
v -67 0 0
v -68 -1 0
v -69 -1 0
v -69 0 0
v -68 0 0
v -69 -1 0
v -70 -1 0
v -70 0 0
v -69 0 0
v 0 -2 0
v -1 -2 0
v -1 -1 0
v 0 -1 0
v -1 -2 0
v -2 -2 0
v -2 -1 0
v -1 -1 0
v -2 -2 0
v -3 -2 0
v -3 -1 0
v -2 -1 0
v -3 -2 0
v -4 -2 0
v -4 -1 0
v -3 -1 0
v -4 -2 0
v -5 -2 0
v -5 -1 0
v -4 -1 0
v -5 -2 0
v -6 -2 0
v -6 -1 0
v -5 -1 0
v -6 -2 0
v -7 -2 0
v -7 -1 0
v -6 -1 0
v -7 -2 0
v -8 -2 0
v -8 -1 0
v -7 -1 0
v -8 -2 0
v -9 -2 0
v -9 -1 0
v -8 -1 0
v -9 -2 0
v -10 -2 0
v -10 -1 0
v -9 -1 0
v -10 -2 0
v -11 -2 0
v -11 -1 0
v -10 -1 0
v -11 -2 0
v -12 -2 0
v -12 -1 0
v -11 -1 0
v -12 -2 0
v -13 -2 0
v -13 -1 0
v -12 -1 0
v -13 -2 0
v -14 -2 0
v -14 -1 0
v -13 -1 0
v -14 -2 0
v -15 -2 0
v -15 -1 0
v -14 -1 0
v -15 -2 0
v -16 -2 0
v -16 -1 0
v -15 -1 0
v -16 -2 0
v -17 -2 0
v -17 -1 0
v -16 -1 0
v -17 -2 0
v -18 -2 0
v -18 -1 0
v -17 -1 0
v -18 -2 0
v -19 -2 0
v -19 -1 0
v -18 -1 0
v -19 -2 0
v -20 -2 0
v -20 -1 0
v -19 -1 0
v -20 -2 0
v -21 -2 0
v -21 -1 0
v -20 -1 0
v -21 -2 0
v -22 -2 0
v -22 -1 0
v -21 -1 0
v -22 -2 0
v -23 -2 0
v -23 -1 0
v -22 -1 0
v -23 -2 0
v -24 -2 0
v -24 -1 0
v -23 -1 0
v -24 -2 0
v -25 -2 0
v -25 -1 0
v -24 -1 0
v -25 -2 0
v -26 -2 0
v -26 -1 0
v -25 -1 0
v -26 -2 0
v -27 -2 0
v -27 -1 0
v -26 -1 0
v -27 -2 0
v -28 -2 0
v -28 -1 0
v -27 -1 0
v -28 -2 0
v -29 -2 0
v -29 -1 0
v -28 -1 0
v -29 -2 0
v -30 -2 0
v -30 -1 0
v -29 -1 0
v -30 -2 0
v -31 -2 0
v -31 -1 0
v -30 -1 0
v -31 -2 0
v -32 -2 0
v -32 -1 0
v -31 -1 0
v -32 -2 0
v -33 -2 0
v -33 -1 0
v -32 -1 0
v -33 -2 0
v -34 -2 0
v -34 -1 0
v -33 -1 0
v -36 -2 0
v -37 -2 0
v -37 -1 0
v -36 -1 0
v -37 -2 0
v -38 -2 0
v -38 -1 0
v -37 -1 0
v -38 -2 0
v -39 -2 0
v -39 -1 0
v -38 -1 0
v -39 -2 0
v -40 -2 0
v -40 -1 0
v -39 -1 0
v -40 -2 0
v -41 -2 0
v -41 -1 0
v -40 -1 0
v -41 -2 0
v -42 -2 0
v -42 -1 0
v -41 -1 0
v -42 -2 0
v -43 -2 0
v -43 -1 0
v -42 -1 0
v -43 -2 0
v -44 -2 0
v -44 -1 0
v -43 -1 0
v -44 -2 0
v -45 -2 0
v -45 -1 0
v -44 -1 0
v -45 -2 0
v -46 -2 0
v -46 -1 0
v -45 -1 0
v -46 -2 0
v -47 -2 0
v -47 -1 0
v -46 -1 0
v -47 -2 0
v -48 -2 0
v -48 -1 0
v -47 -1 0
v -48 -2 0
v -49 -2 0
v -49 -1 0
v -48 -1 0
v -49 -2 0
v -50 -2 0
v -50 -1 0
v -49 -1 0
v -50 -2 0
v -51 -2 0
v -51 -1 0
v -50 -1 0
v -51 -2 0
v -52 -2 0
v -52 -1 0
v -51 -1 0
v -52 -2 0
v -53 -2 0
v -53 -1 0
v -52 -1 0
v -53 -2 0
v -54 -2 0
v -54 -1 0
v -53 -1 0
v -54 -2 0
v -55 -2 0
v -55 -1 0
v -54 -1 0
v -55 -2 0
v -56 -2 0
v -56 -1 0
v -55 -1 0
v -56 -2 0
v -57 -2 0
v -57 -1 0
v -56 -1 0
v -57 -2 0
v -58 -2 0
v -58 -1 0
v -57 -1 0
v -58 -2 0
v -59 -2 0
v -59 -1 0
v -58 -1 0
v -59 -2 0
v -60 -2 0
v -60 -1 0
v -59 -1 0
v -60 -2 0
v -61 -2 0
v -61 -1 0
v -60 -1 0
v -61 -2 0
v -62 -2 0
v -62 -1 0
v -61 -1 0
v -62 -2 0
v -63 -2 0
v -63 -1 0
v -62 -1 0
v -63 -2 0
v -64 -2 0
v -64 -1 0
v -63 -1 0
v -64 -2 0
v -65 -2 0
v -65 -1 0
v -64 -1 0
v -65 -2 0
v -66 -2 0
v -66 -1 0
v -65 -1 0
v -66 -2 0
v -67 -2 0
v -67 -1 0
v -66 -1 0
v -67 -2 0
v -68 -2 0
v -68 -1 0
v -67 -1 0
v -68 -2 0
v -69 -2 0
v -69 -1 0
v -68 -1 0
v -69 -2 0
v -70 -2 0
v -70 -1 0
v -69 -1 0

# Texture cooridinates (Count = 24)
vt 0.5652174 0.0625
vt 0.6086956 0.0625
vt 0.6086956 0.09375
vt 0.5652174 0.09375
vt 0.6521739 0.0625
vt 0.6521739 0.09375
vt 0.5652174 0.71875
vt 0.6086956 0.71875
vt 0.6086956 0.75
vt 0.5652174 0.75
vt 0.6521739 0.71875
vt 0.6521739 0.75
vt 0.4782609 0.71875
vt 0.5217391 0.71875
vt 0.5217391 0.75
vt 0.4782609 0.75
vt 0.5652174 0.03125
vt 0.6086956 0.03125
vt 0.6521739 0.03125
vt 0.5652174 0.6875
vt 0.6086956 0.6875
vt 0.6521739 0.6875
vt 0.4782609 0.6875
vt 0.5217391 0.6875

# Normal
vn 0 0 -1

# Mesh description
g center_village_mesh_0007

# Faces
f 1/1/1 2/2/1 3/3/1 4/4/1
f 5/2/1 6/5/1 7/6/1 8/3/1
f 9/1/1 10/2/1 11/3/1 12/4/1
f 13/2/1 14/5/1 15/6/1 16/3/1
f 17/1/1 18/2/1 19/3/1 20/4/1
f 21/2/1 22/5/1 23/6/1 24/3/1
f 25/1/1 26/2/1 27/3/1 28/4/1
f 29/2/1 30/5/1 31/6/1 32/3/1
f 33/1/1 34/2/1 35/3/1 36/4/1
f 37/2/1 38/5/1 39/6/1 40/3/1
f 41/1/1 42/2/1 43/3/1 44/4/1
f 45/2/1 46/5/1 47/6/1 48/3/1
f 49/1/1 50/2/1 51/3/1 52/4/1
f 53/2/1 54/5/1 55/6/1 56/3/1
f 57/1/1 58/2/1 59/3/1 60/4/1
f 61/2/1 62/5/1 63/6/1 64/3/1
f 65/1/1 66/2/1 67/3/1 68/4/1
f 69/2/1 70/5/1 71/6/1 72/3/1
f 73/1/1 74/2/1 75/3/1 76/4/1
f 77/2/1 78/5/1 79/6/1 80/3/1
f 81/1/1 82/2/1 83/3/1 84/4/1
f 85/2/1 86/5/1 87/6/1 88/3/1
f 89/1/1 90/2/1 91/3/1 92/4/1
f 93/2/1 94/5/1 95/6/1 96/3/1
f 97/1/1 98/2/1 99/3/1 100/4/1
f 101/2/1 102/5/1 103/6/1 104/3/1
f 105/1/1 106/2/1 107/3/1 108/4/1
f 109/2/1 110/5/1 111/6/1 112/3/1
f 113/1/1 114/2/1 115/3/1 116/4/1
f 117/2/1 118/5/1 119/6/1 120/3/1
f 121/1/1 122/2/1 123/3/1 124/4/1
f 125/2/1 126/5/1 127/6/1 128/3/1
f 129/7/1 130/8/1 131/9/1 132/10/1
f 133/8/1 134/11/1 135/12/1 136/9/1
f 137/13/1 138/14/1 139/15/1 140/16/1
f 141/14/1 142/7/1 143/10/1 144/15/1
f 145/1/1 146/2/1 147/3/1 148/4/1
f 149/2/1 150/5/1 151/6/1 152/3/1
f 153/1/1 154/2/1 155/3/1 156/4/1
f 157/2/1 158/5/1 159/6/1 160/3/1
f 161/1/1 162/2/1 163/3/1 164/4/1
f 165/2/1 166/5/1 167/6/1 168/3/1
f 169/1/1 170/2/1 171/3/1 172/4/1
f 173/2/1 174/5/1 175/6/1 176/3/1
f 177/1/1 178/2/1 179/3/1 180/4/1
f 181/2/1 182/5/1 183/6/1 184/3/1
f 185/1/1 186/2/1 187/3/1 188/4/1
f 189/2/1 190/5/1 191/6/1 192/3/1
f 193/1/1 194/2/1 195/3/1 196/4/1
f 197/2/1 198/5/1 199/6/1 200/3/1
f 201/1/1 202/2/1 203/3/1 204/4/1
f 205/2/1 206/5/1 207/6/1 208/3/1
f 209/1/1 210/2/1 211/3/1 212/4/1
f 213/2/1 214/5/1 215/6/1 216/3/1
f 217/1/1 218/2/1 219/3/1 220/4/1
f 221/2/1 222/5/1 223/6/1 224/3/1
f 225/1/1 226/2/1 227/3/1 228/4/1
f 229/2/1 230/5/1 231/6/1 232/3/1
f 233/1/1 234/2/1 235/3/1 236/4/1
f 237/2/1 238/5/1 239/6/1 240/3/1
f 241/1/1 242/2/1 243/3/1 244/4/1
f 245/2/1 246/5/1 247/6/1 248/3/1
f 249/1/1 250/2/1 251/3/1 252/4/1
f 253/2/1 254/5/1 255/6/1 256/3/1
f 257/1/1 258/2/1 259/3/1 260/4/1
f 261/2/1 262/5/1 263/6/1 264/3/1
f 265/1/1 266/2/1 267/3/1 268/4/1
f 269/2/1 270/5/1 271/6/1 272/3/1
f 273/17/1 274/18/1 275/2/1 276/1/1
f 277/18/1 278/19/1 279/5/1 280/2/1
f 281/17/1 282/18/1 283/2/1 284/1/1
f 285/18/1 286/19/1 287/5/1 288/2/1
f 289/17/1 290/18/1 291/2/1 292/1/1
f 293/18/1 294/19/1 295/5/1 296/2/1
f 297/17/1 298/18/1 299/2/1 300/1/1
f 301/18/1 302/19/1 303/5/1 304/2/1
f 305/17/1 306/18/1 307/2/1 308/1/1
f 309/18/1 310/19/1 311/5/1 312/2/1
f 313/17/1 314/18/1 315/2/1 316/1/1
f 317/18/1 318/19/1 319/5/1 320/2/1
f 321/17/1 322/18/1 323/2/1 324/1/1
f 325/18/1 326/19/1 327/5/1 328/2/1
f 329/17/1 330/18/1 331/2/1 332/1/1
f 333/18/1 334/19/1 335/5/1 336/2/1
f 337/17/1 338/18/1 339/2/1 340/1/1
f 341/18/1 342/19/1 343/5/1 344/2/1
f 345/17/1 346/18/1 347/2/1 348/1/1
f 349/18/1 350/19/1 351/5/1 352/2/1
f 353/17/1 354/18/1 355/2/1 356/1/1
f 357/18/1 358/19/1 359/5/1 360/2/1
f 361/17/1 362/18/1 363/2/1 364/1/1
f 365/18/1 366/19/1 367/5/1 368/2/1
f 369/17/1 370/18/1 371/2/1 372/1/1
f 373/18/1 374/19/1 375/5/1 376/2/1
f 377/17/1 378/18/1 379/2/1 380/1/1
f 381/18/1 382/19/1 383/5/1 384/2/1
f 385/17/1 386/18/1 387/2/1 388/1/1
f 389/18/1 390/19/1 391/5/1 392/2/1
f 393/17/1 394/18/1 395/2/1 396/1/1
f 397/18/1 398/19/1 399/5/1 400/2/1
f 401/20/1 402/21/1 403/8/1 404/7/1
f 405/21/1 406/22/1 407/11/1 408/8/1
f 409/23/1 410/24/1 411/14/1 412/13/1
f 413/24/1 414/20/1 415/7/1 416/14/1
f 417/17/1 418/18/1 419/2/1 420/1/1
f 421/18/1 422/19/1 423/5/1 424/2/1
f 425/17/1 426/18/1 427/2/1 428/1/1
f 429/18/1 430/19/1 431/5/1 432/2/1
f 433/17/1 434/18/1 435/2/1 436/1/1
f 437/18/1 438/19/1 439/5/1 440/2/1
f 441/17/1 442/18/1 443/2/1 444/1/1
f 445/18/1 446/19/1 447/5/1 448/2/1
f 449/17/1 450/18/1 451/2/1 452/1/1
f 453/18/1 454/19/1 455/5/1 456/2/1
f 457/17/1 458/18/1 459/2/1 460/1/1
f 461/18/1 462/19/1 463/5/1 464/2/1
f 465/17/1 466/18/1 467/2/1 468/1/1
f 469/18/1 470/19/1 471/5/1 472/2/1
f 473/17/1 474/18/1 475/2/1 476/1/1
f 477/18/1 478/19/1 479/5/1 480/2/1
f 481/17/1 482/18/1 483/2/1 484/1/1
f 485/18/1 486/19/1 487/5/1 488/2/1
f 489/17/1 490/18/1 491/2/1 492/1/1
f 493/18/1 494/19/1 495/5/1 496/2/1
f 497/17/1 498/18/1 499/2/1 500/1/1
f 501/18/1 502/19/1 503/5/1 504/2/1
f 505/17/1 506/18/1 507/2/1 508/1/1
f 509/18/1 510/19/1 511/5/1 512/2/1
f 513/17/1 514/18/1 515/2/1 516/1/1
f 517/18/1 518/19/1 519/5/1 520/2/1
f 521/17/1 522/18/1 523/2/1 524/1/1
f 525/18/1 526/19/1 527/5/1 528/2/1
f 529/17/1 530/18/1 531/2/1 532/1/1
f 533/18/1 534/19/1 535/5/1 536/2/1
f 537/17/1 538/18/1 539/2/1 540/1/1
f 541/18/1 542/19/1 543/5/1 544/2/1

