# Tiled2Unity generated file. Do not modify by hand.
# Wavefront file for 'center_village_mesh_0015.obj'

# Vertices (Count = 624)
v -61 -3 0
v -62 -3 0
v -62 -2 0
v -61 -2 0
v -62 -3 0
v -63 -3 0
v -63 -2 0
v -62 -2 0
v -63 -3 0
v -64 -3 0
v -64 -2 0
v -63 -2 0
v -64 -3 0
v -65 -3 0
v -65 -2 0
v -64 -2 0
v -61 -4 0
v -62 -4 0
v -62 -3 0
v -61 -3 0
v -62 -4 0
v -63 -4 0
v -63 -3 0
v -62 -3 0
v -63 -4 0
v -64 -4 0
v -64 -3 0
v -63 -3 0
v -64 -4 0
v -65 -4 0
v -65 -3 0
v -64 -3 0
v -46 -5 0
v -47 -5 0
v -47 -4 0
v -46 -4 0
v -47 -5 0
v -48 -5 0
v -48 -4 0
v -47 -4 0
v -48 -5 0
v -49 -5 0
v -49 -4 0
v -48 -4 0
v -49 -5 0
v -50 -5 0
v -50 -4 0
v -49 -4 0
v -61 -5 0
v -62 -5 0
v -62 -4 0
v -61 -4 0
v -62 -5 0
v -63 -5 0
v -63 -4 0
v -62 -4 0
v -63 -5 0
v -64 -5 0
v -64 -4 0
v -63 -4 0
v -64 -5 0
v -65 -5 0
v -65 -4 0
v -64 -4 0
v -46 -6 0
v -47 -6 0
v -47 -5 0
v -46 -5 0
v -47 -6 0
v -48 -6 0
v -48 -5 0
v -47 -5 0
v -48 -6 0
v -49 -6 0
v -49 -5 0
v -48 -5 0
v -49 -6 0
v -50 -6 0
v -50 -5 0
v -49 -5 0
v -54 -6 0
v -55 -6 0
v -55 -5 0
v -54 -5 0
v -55 -6 0
v -56 -6 0
v -56 -5 0
v -55 -5 0
v -56 -6 0
v -57 -6 0
v -57 -5 0
v -56 -5 0
v -57 -6 0
v -58 -6 0
v -58 -5 0
v -57 -5 0
v -61 -6 0
v -62 -6 0
v -62 -5 0
v -61 -5 0
v -62 -6 0
v -63 -6 0
v -63 -5 0
v -62 -5 0
v -63 -6 0
v -64 -6 0
v -64 -5 0
v -63 -5 0
v -64 -6 0
v -65 -6 0
v -65 -5 0
v -64 -5 0
v -46 -7 0
v -47 -7 0
v -47 -6 0
v -46 -6 0
v -47 -7 0
v -48 -7 0
v -48 -6 0
v -47 -6 0
v -48 -7 0
v -49 -7 0
v -49 -6 0
v -48 -6 0
v -49 -7 0
v -50 -7 0
v -50 -6 0
v -49 -6 0
v -54 -7 0
v -55 -7 0
v -55 -6 0
v -54 -6 0
v -55 -7 0
v -56 -7 0
v -56 -6 0
v -55 -6 0
v -56 -7 0
v -57 -7 0
v -57 -6 0
v -56 -6 0
v -57 -7 0
v -58 -7 0
v -58 -6 0
v -57 -6 0
v -46 -8 0
v -47 -8 0
v -47 -7 0
v -46 -7 0
v -47 -8 0
v -48 -8 0
v -48 -7 0
v -47 -7 0
v -48 -8 0
v -49 -8 0
v -49 -7 0
v -48 -7 0
v -49 -8 0
v -50 -8 0
v -50 -7 0
v -49 -7 0
v -54 -8 0
v -55 -8 0
v -55 -7 0
v -54 -7 0
v -55 -8 0
v -56 -8 0
v -56 -7 0
v -55 -7 0
v -56 -8 0
v -57 -8 0
v -57 -7 0
v -56 -7 0
v -57 -8 0
v -58 -8 0
v -58 -7 0
v -57 -7 0
v -54 -9 0
v -55 -9 0
v -55 -8 0
v -54 -8 0
v -55 -9 0
v -56 -9 0
v -56 -8 0
v -55 -8 0
v -56 -9 0
v -57 -9 0
v -57 -8 0
v -56 -8 0
v -57 -9 0
v -58 -9 0
v -58 -8 0
v -57 -8 0
v -62 -13 0
v -63 -13 0
v -63 -12 0
v -62 -12 0
v -63 -13 0
v -64 -13 0
v -64 -12 0
v -63 -12 0
v -64 -13 0
v -65 -13 0
v -65 -12 0
v -64 -12 0
v -65 -13 0
v -66 -13 0
v -66 -12 0
v -65 -12 0
v -62 -14 0
v -63 -14 0
v -63 -13 0
v -62 -13 0
v -63 -14 0
v -64 -14 0
v -64 -13 0
v -63 -13 0
v -64 -14 0
v -65 -14 0
v -65 -13 0
v -64 -13 0
v -65 -14 0
v -66 -14 0
v -66 -13 0
v -65 -13 0
v -62 -15 0
v -63 -15 0
v -63 -14 0
v -62 -14 0
v -63 -15 0
v -64 -15 0
v -64 -14 0
v -63 -14 0
v -64 -15 0
v -65 -15 0
v -65 -14 0
v -64 -14 0
v -65 -15 0
v -66 -15 0
v -66 -14 0
v -65 -14 0
v -62 -16 0
v -63 -16 0
v -63 -15 0
v -62 -15 0
v -63 -16 0
v -64 -16 0
v -64 -15 0
v -63 -15 0
v -64 -16 0
v -65 -16 0
v -65 -15 0
v -64 -15 0
v -65 -16 0
v -66 -16 0
v -66 -15 0
v -65 -15 0
v -57 -19 0
v -58 -19 0
v -58 -18 0
v -57 -18 0
v -58 -19 0
v -59 -19 0
v -59 -18 0
v -58 -18 0
v -59 -19 0
v -60 -19 0
v -60 -18 0
v -59 -18 0
v -60 -19 0
v -61 -19 0
v -61 -18 0
v -60 -18 0
v -57 -20 0
v -58 -20 0
v -58 -19 0
v -57 -19 0
v -58 -20 0
v -59 -20 0
v -59 -19 0
v -58 -19 0
v -59 -20 0
v -60 -20 0
v -60 -19 0
v -59 -19 0
v -60 -20 0
v -61 -20 0
v -61 -19 0
v -60 -19 0
v -57 -21 0
v -58 -21 0
v -58 -20 0
v -57 -20 0
v -58 -21 0
v -59 -21 0
v -59 -20 0
v -58 -20 0
v -59 -21 0
v -60 -21 0
v -60 -20 0
v -59 -20 0
v -60 -21 0
v -61 -21 0
v -61 -20 0
v -60 -20 0
v -57 -22 0
v -58 -22 0
v -58 -21 0
v -57 -21 0
v -58 -22 0
v -59 -22 0
v -59 -21 0
v -58 -21 0
v -59 -22 0
v -60 -22 0
v -60 -21 0
v -59 -21 0
v -60 -22 0
v -61 -22 0
v -61 -21 0
v -60 -21 0
v -52 -24 0
v -53 -24 0
v -53 -23 0
v -52 -23 0
v -53 -24 0
v -54 -24 0
v -54 -23 0
v -53 -23 0
v -54 -24 0
v -55 -24 0
v -55 -23 0
v -54 -23 0
v -55 -24 0
v -56 -24 0
v -56 -23 0
v -55 -23 0
v -52 -25 0
v -53 -25 0
v -53 -24 0
v -52 -24 0
v -53 -25 0
v -54 -25 0
v -54 -24 0
v -53 -24 0
v -54 -25 0
v -55 -25 0
v -55 -24 0
v -54 -24 0
v -55 -25 0
v -56 -25 0
v -56 -24 0
v -55 -24 0
v -52 -26 0
v -53 -26 0
v -53 -25 0
v -52 -25 0
v -53 -26 0
v -54 -26 0
v -54 -25 0
v -53 -25 0
v -54 -26 0
v -55 -26 0
v -55 -25 0
v -54 -25 0
v -55 -26 0
v -56 -26 0
v -56 -25 0
v -55 -25 0
v -63 -26 0
v -64 -26 0
v -64 -25 0
v -63 -25 0
v -64 -26 0
v -65 -26 0
v -65 -25 0
v -64 -25 0
v -65 -26 0
v -66 -26 0
v -66 -25 0
v -65 -25 0
v -66 -26 0
v -67 -26 0
v -67 -25 0
v -66 -25 0
v -53 -27 0
v -54 -27 0
v -54 -26 0
v -53 -26 0
v -54 -27 0
v -55 -27 0
v -55 -26 0
v -54 -26 0
v -55 -27 0
v -56 -27 0
v -56 -26 0
v -55 -26 0
v -63 -27 0
v -64 -27 0
v -64 -26 0
v -63 -26 0
v -64 -27 0
v -65 -27 0
v -65 -26 0
v -64 -26 0
v -65 -27 0
v -66 -27 0
v -66 -26 0
v -65 -26 0
v -66 -27 0
v -67 -27 0
v -67 -26 0
v -66 -26 0
v -63 -28 0
v -64 -28 0
v -64 -27 0
v -63 -27 0
v -64 -28 0
v -65 -28 0
v -65 -27 0
v -64 -27 0
v -65 -28 0
v -66 -28 0
v -66 -27 0
v -65 -27 0
v -66 -28 0
v -67 -28 0
v -67 -27 0
v -66 -27 0
v -63 -29 0
v -64 -29 0
v -64 -28 0
v -63 -28 0
v -64 -29 0
v -65 -29 0
v -65 -28 0
v -64 -28 0
v -65 -29 0
v -66 -29 0
v -66 -28 0
v -65 -28 0
v -66 -29 0
v -67 -29 0
v -67 -28 0
v -66 -28 0
v -41 -56 0
v -42 -56 0
v -42 -55 0
v -41 -55 0
v -42 -56 0
v -43 -56 0
v -43 -55 0
v -42 -55 0
v -43 -56 0
v -44 -56 0
v -44 -55 0
v -43 -55 0
v -44 -56 0
v -45 -56 0
v -45 -55 0
v -44 -55 0
v -46 -56 0
v -47 -56 0
v -47 -55 0
v -46 -55 0
v -47 -56 0
v -48 -56 0
v -48 -55 0
v -47 -55 0
v -48 -56 0
v -49 -56 0
v -49 -55 0
v -48 -55 0
v -49 -56 0
v -50 -56 0
v -50 -55 0
v -49 -55 0
v -51 -56 0
v -52 -56 0
v -52 -55 0
v -51 -55 0
v -52 -56 0
v -53 -56 0
v -53 -55 0
v -52 -55 0
v -53 -56 0
v -54 -56 0
v -54 -55 0
v -53 -55 0
v -54 -56 0
v -55 -56 0
v -55 -55 0
v -54 -55 0
v -41 -57 0
v -42 -57 0
v -42 -56 0
v -41 -56 0
v -42 -57 0
v -43 -57 0
v -43 -56 0
v -42 -56 0
v -43 -57 0
v -44 -57 0
v -44 -56 0
v -43 -56 0
v -44 -57 0
v -45 -57 0
v -45 -56 0
v -44 -56 0
v -46 -57 0
v -47 -57 0
v -47 -56 0
v -46 -56 0
v -47 -57 0
v -48 -57 0
v -48 -56 0
v -47 -56 0
v -48 -57 0
v -49 -57 0
v -49 -56 0
v -48 -56 0
v -49 -57 0
v -50 -57 0
v -50 -56 0
v -49 -56 0
v -51 -57 0
v -52 -57 0
v -52 -56 0
v -51 -56 0
v -52 -57 0
v -53 -57 0
v -53 -56 0
v -52 -56 0
v -53 -57 0
v -54 -57 0
v -54 -56 0
v -53 -56 0
v -54 -57 0
v -55 -57 0
v -55 -56 0
v -54 -56 0
v -41 -58 0
v -42 -58 0
v -42 -57 0
v -41 -57 0
v -42 -58 0
v -43 -58 0
v -43 -57 0
v -42 -57 0
v -43 -58 0
v -44 -58 0
v -44 -57 0
v -43 -57 0
v -44 -58 0
v -45 -58 0
v -45 -57 0
v -44 -57 0
v -46 -58 0
v -47 -58 0
v -47 -57 0
v -46 -57 0
v -47 -58 0
v -48 -58 0
v -48 -57 0
v -47 -57 0
v -48 -58 0
v -49 -58 0
v -49 -57 0
v -48 -57 0
v -49 -58 0
v -50 -58 0
v -50 -57 0
v -49 -57 0
v -51 -58 0
v -52 -58 0
v -52 -57 0
v -51 -57 0
v -52 -58 0
v -53 -58 0
v -53 -57 0
v -52 -57 0
v -53 -58 0
v -54 -58 0
v -54 -57 0
v -53 -57 0
v -54 -58 0
v -55 -58 0
v -55 -57 0
v -54 -57 0
v -42 -59 0
v -43 -59 0
v -43 -58 0
v -42 -58 0
v -43 -59 0
v -44 -59 0
v -44 -58 0
v -43 -58 0
v -44 -59 0
v -45 -59 0
v -45 -58 0
v -44 -58 0
v -47 -59 0
v -48 -59 0
v -48 -58 0
v -47 -58 0
v -48 -59 0
v -49 -59 0
v -49 -58 0
v -48 -58 0
v -49 -59 0
v -50 -59 0
v -50 -58 0
v -49 -58 0
v -52 -59 0
v -53 -59 0
v -53 -58 0
v -52 -58 0
v -53 -59 0
v -54 -59 0
v -54 -58 0
v -53 -58 0
v -54 -59 0
v -55 -59 0
v -55 -58 0
v -54 -58 0

# Texture cooridinates (Count = 25)
vt 0.4782609 0.78125
vt 0.5217391 0.78125
vt 0.5217391 0.8125
vt 0.4782609 0.8125
vt 0.5652174 0.78125
vt 0.5652174 0.8125
vt 0.6086956 0.78125
vt 0.6086956 0.8125
vt 0.6521739 0.78125
vt 0.6521739 0.8125
vt 0.4782609 0.75
vt 0.5217391 0.75
vt 0.5652174 0.75
vt 0.6086956 0.75
vt 0.6521739 0.75
vt 0.4782609 0.71875
vt 0.5217391 0.71875
vt 0.5652174 0.71875
vt 0.6086956 0.71875
vt 0.6521739 0.71875
vt 0.4782609 0.6875
vt 0.5217391 0.6875
vt 0.5652174 0.6875
vt 0.6086956 0.6875
vt 0.6521739 0.6875

# Normal
vn 0 0 -1

# Mesh description
g center_village_mesh_0015

# Faces
f 1/1/1 2/2/1 3/3/1 4/4/1
f 5/2/1 6/5/1 7/6/1 8/3/1
f 9/5/1 10/7/1 11/8/1 12/6/1
f 13/7/1 14/9/1 15/10/1 16/8/1
f 17/11/1 18/12/1 19/2/1 20/1/1
f 21/12/1 22/13/1 23/5/1 24/2/1
f 25/13/1 26/14/1 27/7/1 28/5/1
f 29/14/1 30/15/1 31/9/1 32/7/1
f 33/1/1 34/2/1 35/3/1 36/4/1
f 37/2/1 38/5/1 39/6/1 40/3/1
f 41/5/1 42/7/1 43/8/1 44/6/1
f 45/7/1 46/9/1 47/10/1 48/8/1
f 49/16/1 50/17/1 51/12/1 52/11/1
f 53/17/1 54/18/1 55/13/1 56/12/1
f 57/18/1 58/19/1 59/14/1 60/13/1
f 61/19/1 62/20/1 63/15/1 64/14/1
f 65/11/1 66/12/1 67/2/1 68/1/1
f 69/12/1 70/13/1 71/5/1 72/2/1
f 73/13/1 74/14/1 75/7/1 76/5/1
f 77/14/1 78/15/1 79/9/1 80/7/1
f 81/1/1 82/2/1 83/3/1 84/4/1
f 85/2/1 86/5/1 87/6/1 88/3/1
f 89/5/1 90/7/1 91/8/1 92/6/1
f 93/7/1 94/9/1 95/10/1 96/8/1
f 97/21/1 98/22/1 99/17/1 100/16/1
f 101/22/1 102/23/1 103/18/1 104/17/1
f 105/23/1 106/24/1 107/19/1 108/18/1
f 109/24/1 110/25/1 111/20/1 112/19/1
f 113/16/1 114/17/1 115/12/1 116/11/1
f 117/17/1 118/18/1 119/13/1 120/12/1
f 121/18/1 122/19/1 123/14/1 124/13/1
f 125/19/1 126/20/1 127/15/1 128/14/1
f 129/11/1 130/12/1 131/2/1 132/1/1
f 133/12/1 134/13/1 135/5/1 136/2/1
f 137/13/1 138/14/1 139/7/1 140/5/1
f 141/14/1 142/15/1 143/9/1 144/7/1
f 145/21/1 146/22/1 147/17/1 148/16/1
f 149/22/1 150/23/1 151/18/1 152/17/1
f 153/23/1 154/24/1 155/19/1 156/18/1
f 157/24/1 158/25/1 159/20/1 160/19/1
f 161/16/1 162/17/1 163/12/1 164/11/1
f 165/17/1 166/18/1 167/13/1 168/12/1
f 169/18/1 170/19/1 171/14/1 172/13/1
f 173/19/1 174/20/1 175/15/1 176/14/1
f 177/21/1 178/22/1 179/17/1 180/16/1
f 181/22/1 182/23/1 183/18/1 184/17/1
f 185/23/1 186/24/1 187/19/1 188/18/1
f 189/24/1 190/25/1 191/20/1 192/19/1
f 193/1/1 194/2/1 195/3/1 196/4/1
f 197/2/1 198/5/1 199/6/1 200/3/1
f 201/5/1 202/7/1 203/8/1 204/6/1
f 205/7/1 206/9/1 207/10/1 208/8/1
f 209/11/1 210/12/1 211/2/1 212/1/1
f 213/12/1 214/13/1 215/5/1 216/2/1
f 217/13/1 218/14/1 219/7/1 220/5/1
f 221/14/1 222/15/1 223/9/1 224/7/1
f 225/16/1 226/17/1 227/12/1 228/11/1
f 229/17/1 230/18/1 231/13/1 232/12/1
f 233/18/1 234/19/1 235/14/1 236/13/1
f 237/19/1 238/20/1 239/15/1 240/14/1
f 241/21/1 242/22/1 243/17/1 244/16/1
f 245/22/1 246/23/1 247/18/1 248/17/1
f 249/23/1 250/24/1 251/19/1 252/18/1
f 253/24/1 254/25/1 255/20/1 256/19/1
f 257/1/1 258/2/1 259/3/1 260/4/1
f 261/2/1 262/5/1 263/6/1 264/3/1
f 265/5/1 266/7/1 267/8/1 268/6/1
f 269/7/1 270/9/1 271/10/1 272/8/1
f 273/11/1 274/12/1 275/2/1 276/1/1
f 277/12/1 278/13/1 279/5/1 280/2/1
f 281/13/1 282/14/1 283/7/1 284/5/1
f 285/14/1 286/15/1 287/9/1 288/7/1
f 289/16/1 290/17/1 291/12/1 292/11/1
f 293/17/1 294/18/1 295/13/1 296/12/1
f 297/18/1 298/19/1 299/14/1 300/13/1
f 301/19/1 302/20/1 303/15/1 304/14/1
f 305/21/1 306/22/1 307/17/1 308/16/1
f 309/22/1 310/23/1 311/18/1 312/17/1
f 313/23/1 314/24/1 315/19/1 316/18/1
f 317/24/1 318/25/1 319/20/1 320/19/1
f 321/1/1 322/2/1 323/3/1 324/4/1
f 325/2/1 326/5/1 327/6/1 328/3/1
f 329/5/1 330/7/1 331/8/1 332/6/1
f 333/7/1 334/9/1 335/10/1 336/8/1
f 337/11/1 338/12/1 339/2/1 340/1/1
f 341/12/1 342/13/1 343/5/1 344/2/1
f 345/13/1 346/14/1 347/7/1 348/5/1
f 349/14/1 350/15/1 351/9/1 352/7/1
f 353/16/1 354/17/1 355/12/1 356/11/1
f 357/17/1 358/18/1 359/13/1 360/12/1
f 361/18/1 362/19/1 363/14/1 364/13/1
f 365/19/1 366/20/1 367/15/1 368/14/1
f 369/1/1 370/2/1 371/3/1 372/4/1
f 373/2/1 374/5/1 375/6/1 376/3/1
f 377/5/1 378/7/1 379/8/1 380/6/1
f 381/7/1 382/9/1 383/10/1 384/8/1
f 385/22/1 386/23/1 387/18/1 388/17/1
f 389/23/1 390/24/1 391/19/1 392/18/1
f 393/24/1 394/25/1 395/20/1 396/19/1
f 397/11/1 398/12/1 399/2/1 400/1/1
f 401/12/1 402/13/1 403/5/1 404/2/1
f 405/13/1 406/14/1 407/7/1 408/5/1
f 409/14/1 410/15/1 411/9/1 412/7/1
f 413/16/1 414/17/1 415/12/1 416/11/1
f 417/17/1 418/18/1 419/13/1 420/12/1
f 421/18/1 422/19/1 423/14/1 424/13/1
f 425/19/1 426/20/1 427/15/1 428/14/1
f 429/21/1 430/22/1 431/17/1 432/16/1
f 433/22/1 434/23/1 435/18/1 436/17/1
f 437/23/1 438/24/1 439/19/1 440/18/1
f 441/24/1 442/25/1 443/20/1 444/19/1
f 445/1/1 446/2/1 447/3/1 448/4/1
f 449/2/1 450/5/1 451/6/1 452/3/1
f 453/5/1 454/7/1 455/8/1 456/6/1
f 457/7/1 458/9/1 459/10/1 460/8/1
f 461/1/1 462/2/1 463/3/1 464/4/1
f 465/2/1 466/5/1 467/6/1 468/3/1
f 469/5/1 470/7/1 471/8/1 472/6/1
f 473/7/1 474/9/1 475/10/1 476/8/1
f 477/1/1 478/2/1 479/3/1 480/4/1
f 481/2/1 482/5/1 483/6/1 484/3/1
f 485/5/1 486/7/1 487/8/1 488/6/1
f 489/7/1 490/9/1 491/10/1 492/8/1
f 493/11/1 494/12/1 495/2/1 496/1/1
f 497/12/1 498/13/1 499/5/1 500/2/1
f 501/13/1 502/14/1 503/7/1 504/5/1
f 505/14/1 506/15/1 507/9/1 508/7/1
f 509/11/1 510/12/1 511/2/1 512/1/1
f 513/12/1 514/13/1 515/5/1 516/2/1
f 517/13/1 518/14/1 519/7/1 520/5/1
f 521/14/1 522/15/1 523/9/1 524/7/1
f 525/11/1 526/12/1 527/2/1 528/1/1
f 529/12/1 530/13/1 531/5/1 532/2/1
f 533/13/1 534/14/1 535/7/1 536/5/1
f 537/14/1 538/15/1 539/9/1 540/7/1
f 541/16/1 542/17/1 543/12/1 544/11/1
f 545/17/1 546/18/1 547/13/1 548/12/1
f 549/18/1 550/19/1 551/14/1 552/13/1
f 553/19/1 554/20/1 555/15/1 556/14/1
f 557/16/1 558/17/1 559/12/1 560/11/1
f 561/17/1 562/18/1 563/13/1 564/12/1
f 565/18/1 566/19/1 567/14/1 568/13/1
f 569/19/1 570/20/1 571/15/1 572/14/1
f 573/16/1 574/17/1 575/12/1 576/11/1
f 577/17/1 578/18/1 579/13/1 580/12/1
f 581/18/1 582/19/1 583/14/1 584/13/1
f 585/19/1 586/20/1 587/15/1 588/14/1
f 589/22/1 590/23/1 591/18/1 592/17/1
f 593/23/1 594/24/1 595/19/1 596/18/1
f 597/24/1 598/25/1 599/20/1 600/19/1
f 601/22/1 602/23/1 603/18/1 604/17/1
f 605/23/1 606/24/1 607/19/1 608/18/1
f 609/24/1 610/25/1 611/20/1 612/19/1
f 613/22/1 614/23/1 615/18/1 616/17/1
f 617/23/1 618/24/1 619/19/1 620/18/1
f 621/24/1 622/25/1 623/20/1 624/19/1

