# Tiled2Unity generated file. Do not modify by hand.
# Wavefront file for 'center_village_mesh_0016.obj'

# Vertices (Count = 384)
v -3 -53 0
v -4 -53 0
v -4 -52 0
v -3 -52 0
v -4 -53 0
v -5 -53 0
v -5 -52 0
v -4 -52 0
v -5 -53 0
v -6 -53 0
v -6 -52 0
v -5 -52 0
v -6 -53 0
v -7 -53 0
v -7 -52 0
v -6 -52 0
v -7 -53 0
v -8 -53 0
v -8 -52 0
v -7 -52 0
v -8 -53 0
v -9 -53 0
v -9 -52 0
v -8 -52 0
v -9 -53 0
v -10 -53 0
v -10 -52 0
v -9 -52 0
v -10 -53 0
v -11 -53 0
v -11 -52 0
v -10 -52 0
v -11 -53 0
v -12 -53 0
v -12 -52 0
v -11 -52 0
v -12 -53 0
v -13 -53 0
v -13 -52 0
v -12 -52 0
v -13 -53 0
v -14 -53 0
v -14 -52 0
v -13 -52 0
v -14 -53 0
v -15 -53 0
v -15 -52 0
v -14 -52 0
v -15 -53 0
v -16 -53 0
v -16 -52 0
v -15 -52 0
v -16 -53 0
v -17 -53 0
v -17 -52 0
v -16 -52 0
v -17 -53 0
v -18 -53 0
v -18 -52 0
v -17 -52 0
v -18 -53 0
v -19 -53 0
v -19 -52 0
v -18 -52 0
v -3 -54 0
v -4 -54 0
v -4 -53 0
v -3 -53 0
v -4 -54 0
v -5 -54 0
v -5 -53 0
v -4 -53 0
v -5 -54 0
v -6 -54 0
v -6 -53 0
v -5 -53 0
v -6 -54 0
v -7 -54 0
v -7 -53 0
v -6 -53 0
v -7 -54 0
v -8 -54 0
v -8 -53 0
v -7 -53 0
v -8 -54 0
v -9 -54 0
v -9 -53 0
v -8 -53 0
v -9 -54 0
v -10 -54 0
v -10 -53 0
v -9 -53 0
v -10 -54 0
v -11 -54 0
v -11 -53 0
v -10 -53 0
v -11 -54 0
v -12 -54 0
v -12 -53 0
v -11 -53 0
v -12 -54 0
v -13 -54 0
v -13 -53 0
v -12 -53 0
v -13 -54 0
v -14 -54 0
v -14 -53 0
v -13 -53 0
v -14 -54 0
v -15 -54 0
v -15 -53 0
v -14 -53 0
v -15 -54 0
v -16 -54 0
v -16 -53 0
v -15 -53 0
v -16 -54 0
v -17 -54 0
v -17 -53 0
v -16 -53 0
v -17 -54 0
v -18 -54 0
v -18 -53 0
v -17 -53 0
v -18 -54 0
v -19 -54 0
v -19 -53 0
v -18 -53 0
v -3 -60 0
v -4 -60 0
v -4 -59 0
v -3 -59 0
v -4 -60 0
v -5 -60 0
v -5 -59 0
v -4 -59 0
v -8 -60 0
v -9 -60 0
v -9 -59 0
v -8 -59 0
v -9 -60 0
v -10 -60 0
v -10 -59 0
v -9 -59 0
v -14 -60 0
v -15 -60 0
v -15 -59 0
v -14 -59 0
v -15 -60 0
v -16 -60 0
v -16 -59 0
v -15 -59 0
v -3 -61 0
v -4 -61 0
v -4 -60 0
v -3 -60 0
v -4 -61 0
v -5 -61 0
v -5 -60 0
v -4 -60 0
v -8 -61 0
v -9 -61 0
v -9 -60 0
v -8 -60 0
v -9 -61 0
v -10 -61 0
v -10 -60 0
v -9 -60 0
v -14 -61 0
v -15 -61 0
v -15 -60 0
v -14 -60 0
v -15 -61 0
v -16 -61 0
v -16 -60 0
v -15 -60 0
v -3 -62 0
v -4 -62 0
v -4 -61 0
v -3 -61 0
v -4 -62 0
v -5 -62 0
v -5 -61 0
v -4 -61 0
v -8 -62 0
v -9 -62 0
v -9 -61 0
v -8 -61 0
v -9 -62 0
v -10 -62 0
v -10 -61 0
v -9 -61 0
v -14 -62 0
v -15 -62 0
v -15 -61 0
v -14 -61 0
v -15 -62 0
v -16 -62 0
v -16 -61 0
v -15 -61 0
v -3 -63 0
v -4 -63 0
v -4 -62 0
v -3 -62 0
v -4 -63 0
v -5 -63 0
v -5 -62 0
v -4 -62 0
v -8 -63 0
v -9 -63 0
v -9 -62 0
v -8 -62 0
v -9 -63 0
v -10 -63 0
v -10 -62 0
v -9 -62 0
v -14 -63 0
v -15 -63 0
v -15 -62 0
v -14 -62 0
v -15 -63 0
v -16 -63 0
v -16 -62 0
v -15 -62 0
v -3 -64 0
v -4 -64 0
v -4 -63 0
v -3 -63 0
v -4 -64 0
v -5 -64 0
v -5 -63 0
v -4 -63 0
v -8 -64 0
v -9 -64 0
v -9 -63 0
v -8 -63 0
v -9 -64 0
v -10 -64 0
v -10 -63 0
v -9 -63 0
v -14 -64 0
v -15 -64 0
v -15 -63 0
v -14 -63 0
v -15 -64 0
v -16 -64 0
v -16 -63 0
v -15 -63 0
v -3 -65 0
v -4 -65 0
v -4 -64 0
v -3 -64 0
v -4 -65 0
v -5 -65 0
v -5 -64 0
v -4 -64 0
v -8 -65 0
v -9 -65 0
v -9 -64 0
v -8 -64 0
v -9 -65 0
v -10 -65 0
v -10 -64 0
v -9 -64 0
v -14 -65 0
v -15 -65 0
v -15 -64 0
v -14 -64 0
v -15 -65 0
v -16 -65 0
v -16 -64 0
v -15 -64 0
v -3 -66 0
v -4 -66 0
v -4 -65 0
v -3 -65 0
v -4 -66 0
v -5 -66 0
v -5 -65 0
v -4 -65 0
v -8 -66 0
v -9 -66 0
v -9 -65 0
v -8 -65 0
v -9 -66 0
v -10 -66 0
v -10 -65 0
v -9 -65 0
v -14 -66 0
v -15 -66 0
v -15 -65 0
v -14 -65 0
v -15 -66 0
v -16 -66 0
v -16 -65 0
v -15 -65 0
v -19 -66 0
v -20 -66 0
v -20 -65 0
v -19 -65 0
v -20 -66 0
v -21 -66 0
v -21 -65 0
v -20 -65 0
v -21 -66 0
v -22 -66 0
v -22 -65 0
v -21 -65 0
v -22 -66 0
v -23 -66 0
v -23 -65 0
v -22 -65 0
v -23 -66 0
v -24 -66 0
v -24 -65 0
v -23 -65 0
v -24 -66 0
v -25 -66 0
v -25 -65 0
v -24 -65 0
v -25 -66 0
v -26 -66 0
v -26 -65 0
v -25 -65 0
v -26 -66 0
v -27 -66 0
v -27 -65 0
v -26 -65 0
v -3 -67 0
v -4 -67 0
v -4 -66 0
v -3 -66 0
v -4 -67 0
v -5 -67 0
v -5 -66 0
v -4 -66 0
v -8 -67 0
v -9 -67 0
v -9 -66 0
v -8 -66 0
v -9 -67 0
v -10 -67 0
v -10 -66 0
v -9 -66 0
v -14 -67 0
v -15 -67 0
v -15 -66 0
v -14 -66 0
v -15 -67 0
v -16 -67 0
v -16 -66 0
v -15 -66 0
v -19 -67 0
v -20 -67 0
v -20 -66 0
v -19 -66 0
v -20 -67 0
v -21 -67 0
v -21 -66 0
v -20 -66 0
v -21 -67 0
v -22 -67 0
v -22 -66 0
v -21 -66 0
v -22 -67 0
v -23 -67 0
v -23 -66 0
v -22 -66 0
v -23 -67 0
v -24 -67 0
v -24 -66 0
v -23 -66 0
v -24 -67 0
v -25 -67 0
v -25 -66 0
v -24 -66 0
v -25 -67 0
v -26 -67 0
v -26 -66 0
v -25 -66 0
v -26 -67 0
v -27 -67 0
v -27 -66 0
v -26 -66 0

# Texture cooridinates (Count = 21)
vt 0.4782609 0.40625
vt 0.5217391 0.40625
vt 0.5217391 0.4375
vt 0.4782609 0.4375
vt 0.5652174 0.40625
vt 0.5652174 0.4375
vt 0.4782609 0.375
vt 0.5217391 0.375
vt 0.5652174 0.375
vt 0.4782609 0.34375
vt 0.5217391 0.34375
vt 0.5652174 0.34375
vt 0.4782609 0.28125
vt 0.5217391 0.28125
vt 0.5217391 0.3125
vt 0.4782609 0.3125
vt 0.5652174 0.28125
vt 0.5652174 0.3125
vt 0.4782609 0.25
vt 0.5217391 0.25
vt 0.5652174 0.25

# Normal
vn 0 0 -1

# Mesh description
g center_village_mesh_0016

# Faces
f 1/1/1 2/2/1 3/3/1 4/4/1
f 5/2/1 6/5/1 7/6/1 8/3/1
f 9/1/1 10/2/1 11/3/1 12/4/1
f 13/2/1 14/5/1 15/6/1 16/3/1
f 17/1/1 18/2/1 19/3/1 20/4/1
f 21/2/1 22/5/1 23/6/1 24/3/1
f 25/1/1 26/2/1 27/3/1 28/4/1
f 29/2/1 30/5/1 31/6/1 32/3/1
f 33/1/1 34/2/1 35/3/1 36/4/1
f 37/2/1 38/5/1 39/6/1 40/3/1
f 41/1/1 42/2/1 43/3/1 44/4/1
f 45/2/1 46/5/1 47/6/1 48/3/1
f 49/1/1 50/2/1 51/3/1 52/4/1
f 53/2/1 54/5/1 55/6/1 56/3/1
f 57/1/1 58/2/1 59/3/1 60/4/1
f 61/2/1 62/5/1 63/6/1 64/3/1
f 65/7/1 66/8/1 67/2/1 68/1/1
f 69/8/1 70/9/1 71/5/1 72/2/1
f 73/7/1 74/8/1 75/2/1 76/1/1
f 77/8/1 78/9/1 79/5/1 80/2/1
f 81/7/1 82/8/1 83/2/1 84/1/1
f 85/8/1 86/9/1 87/5/1 88/2/1
f 89/7/1 90/8/1 91/2/1 92/1/1
f 93/8/1 94/9/1 95/5/1 96/2/1
f 97/7/1 98/8/1 99/2/1 100/1/1
f 101/8/1 102/9/1 103/5/1 104/2/1
f 105/7/1 106/8/1 107/2/1 108/1/1
f 109/8/1 110/9/1 111/5/1 112/2/1
f 113/7/1 114/8/1 115/2/1 116/1/1
f 117/8/1 118/9/1 119/5/1 120/2/1
f 121/7/1 122/8/1 123/2/1 124/1/1
f 125/8/1 126/9/1 127/5/1 128/2/1
f 129/10/1 130/11/1 131/8/1 132/7/1
f 133/11/1 134/12/1 135/9/1 136/8/1
f 137/10/1 138/11/1 139/8/1 140/7/1
f 141/11/1 142/12/1 143/9/1 144/8/1
f 145/13/1 146/14/1 147/15/1 148/16/1
f 149/14/1 150/17/1 151/18/1 152/15/1
f 153/16/1 154/15/1 155/11/1 156/10/1
f 157/15/1 158/18/1 159/12/1 160/11/1
f 161/16/1 162/15/1 163/11/1 164/10/1
f 165/15/1 166/18/1 167/12/1 168/11/1
f 169/19/1 170/20/1 171/14/1 172/13/1
f 173/20/1 174/21/1 175/17/1 176/14/1
f 177/10/1 178/11/1 179/8/1 180/7/1
f 181/11/1 182/12/1 183/9/1 184/8/1
f 185/10/1 186/11/1 187/8/1 188/7/1
f 189/11/1 190/12/1 191/9/1 192/8/1
f 193/13/1 194/14/1 195/15/1 196/16/1
f 197/14/1 198/17/1 199/18/1 200/15/1
f 201/16/1 202/15/1 203/11/1 204/10/1
f 205/15/1 206/18/1 207/12/1 208/11/1
f 209/16/1 210/15/1 211/11/1 212/10/1
f 213/15/1 214/18/1 215/12/1 216/11/1
f 217/19/1 218/20/1 219/14/1 220/13/1
f 221/20/1 222/21/1 223/17/1 224/14/1
f 225/10/1 226/11/1 227/8/1 228/7/1
f 229/11/1 230/12/1 231/9/1 232/8/1
f 233/10/1 234/11/1 235/8/1 236/7/1
f 237/11/1 238/12/1 239/9/1 240/8/1
f 241/13/1 242/14/1 243/15/1 244/16/1
f 245/14/1 246/17/1 247/18/1 248/15/1
f 249/16/1 250/15/1 251/11/1 252/10/1
f 253/15/1 254/18/1 255/12/1 256/11/1
f 257/16/1 258/15/1 259/11/1 260/10/1
f 261/15/1 262/18/1 263/12/1 264/11/1
f 265/19/1 266/20/1 267/14/1 268/13/1
f 269/20/1 270/21/1 271/17/1 272/14/1
f 273/10/1 274/11/1 275/8/1 276/7/1
f 277/11/1 278/12/1 279/9/1 280/8/1
f 281/10/1 282/11/1 283/8/1 284/7/1
f 285/11/1 286/12/1 287/9/1 288/8/1
f 289/13/1 290/14/1 291/15/1 292/16/1
f 293/14/1 294/17/1 295/18/1 296/15/1
f 297/13/1 298/14/1 299/15/1 300/16/1
f 301/14/1 302/17/1 303/18/1 304/15/1
f 305/13/1 306/14/1 307/15/1 308/16/1
f 309/14/1 310/17/1 311/18/1 312/15/1
f 313/13/1 314/14/1 315/15/1 316/16/1
f 317/14/1 318/17/1 319/18/1 320/15/1
f 321/13/1 322/14/1 323/15/1 324/16/1
f 325/14/1 326/17/1 327/18/1 328/15/1
f 329/16/1 330/15/1 331/11/1 332/10/1
f 333/15/1 334/18/1 335/12/1 336/11/1
f 337/16/1 338/15/1 339/11/1 340/10/1
f 341/15/1 342/18/1 343/12/1 344/11/1
f 345/19/1 346/20/1 347/14/1 348/13/1
f 349/20/1 350/21/1 351/17/1 352/14/1
f 353/19/1 354/20/1 355/14/1 356/13/1
f 357/20/1 358/21/1 359/17/1 360/14/1
f 361/19/1 362/20/1 363/14/1 364/13/1
f 365/20/1 366/21/1 367/17/1 368/14/1
f 369/19/1 370/20/1 371/14/1 372/13/1
f 373/20/1 374/21/1 375/17/1 376/14/1
f 377/19/1 378/20/1 379/14/1 380/13/1
f 381/20/1 382/21/1 383/17/1 384/14/1

