# Tiled2Unity generated file. Do not modify by hand.
# Wavefront file for 'center_village_mesh_0003.obj'

# Vertices (Count = 616)
v -27 -23 0
v -28 -23 0
v -28 -22 0
v -27 -22 0
v -17 -24 0
v -18 -24 0
v -18 -23 0
v -17 -23 0
v -14 -25 0
v -15 -25 0
v -15 -24 0
v -14 -24 0
v -13 -27 0
v -14 -27 0
v -14 -26 0
v -13 -26 0
v -15 -30 0
v -16 -30 0
v -16 -29 0
v -15 -29 0
v -19 -30 0
v -20 -30 0
v -20 -29 0
v -19 -29 0
v -49 -42 0
v -50 -42 0
v -50 -41 0
v -49 -41 0
v -50 -42 0
v -51 -42 0
v -51 -41 0
v -50 -41 0
v -51 -42 0
v -52 -42 0
v -52 -41 0
v -51 -41 0
v -52 -42 0
v -53 -42 0
v -53 -41 0
v -52 -41 0
v -53 -42 0
v -54 -42 0
v -54 -41 0
v -53 -41 0
v -54 -42 0
v -55 -42 0
v -55 -41 0
v -54 -41 0
v -21 -43 0
v -22 -43 0
v -22 -42 0
v -21 -42 0
v -49 -43 0
v -50 -43 0
v -50 -42 0
v -49 -42 0
v -50 -43 0
v -51 -43 0
v -51 -42 0
v -50 -42 0
v -51 -43 0
v -52 -43 0
v -52 -42 0
v -51 -42 0
v -52 -43 0
v -53 -43 0
v -53 -42 0
v -52 -42 0
v -53 -43 0
v -54 -43 0
v -54 -42 0
v -53 -42 0
v -54 -43 0
v -55 -43 0
v -55 -42 0
v -54 -42 0
v -24 -44 0
v -25 -44 0
v -25 -43 0
v -24 -43 0
v -45 -45 0
v -46 -45 0
v -46 -44 0
v -45 -44 0
v -46 -45 0
v -47 -45 0
v -47 -44 0
v -46 -44 0
v -47 -45 0
v -48 -45 0
v -48 -44 0
v -47 -44 0
v -48 -45 0
v -49 -45 0
v -49 -44 0
v -48 -44 0
v -49 -45 0
v -50 -45 0
v -50 -44 0
v -49 -44 0
v -50 -45 0
v -51 -45 0
v -51 -44 0
v -50 -44 0
v -26 -46 0
v -27 -46 0
v -27 -45 0
v -26 -45 0
v -45 -46 0
v -46 -46 0
v -46 -45 0
v -45 -45 0
v -50 -46 0
v -51 -46 0
v -51 -45 0
v -50 -45 0
v -20 -47 0
v -21 -47 0
v -21 -46 0
v -20 -46 0
v -24 -47 0
v -25 -47 0
v -25 -46 0
v -24 -46 0
v -45 -47 0
v -46 -47 0
v -46 -46 0
v -45 -46 0
v -50 -47 0
v -51 -47 0
v -51 -46 0
v -50 -46 0
v -26 -48 0
v -27 -48 0
v -27 -47 0
v -26 -47 0
v -2 -69 0
v -3 -69 0
v -3 -68 0
v -2 -68 0
v -3 -69 0
v -4 -69 0
v -4 -68 0
v -3 -68 0
v -4 -69 0
v -5 -69 0
v -5 -68 0
v -4 -68 0
v -5 -69 0
v -6 -69 0
v -6 -68 0
v -5 -68 0
v -6 -69 0
v -7 -69 0
v -7 -68 0
v -6 -68 0
v -7 -69 0
v -8 -69 0
v -8 -68 0
v -7 -68 0
v -8 -69 0
v -9 -69 0
v -9 -68 0
v -8 -68 0
v -9 -69 0
v -10 -69 0
v -10 -68 0
v -9 -68 0
v -10 -69 0
v -11 -69 0
v -11 -68 0
v -10 -68 0
v -11 -69 0
v -12 -69 0
v -12 -68 0
v -11 -68 0
v -12 -69 0
v -13 -69 0
v -13 -68 0
v -12 -68 0
v -13 -69 0
v -14 -69 0
v -14 -68 0
v -13 -68 0
v -14 -69 0
v -15 -69 0
v -15 -68 0
v -14 -68 0
v -15 -69 0
v -16 -69 0
v -16 -68 0
v -15 -68 0
v -16 -69 0
v -17 -69 0
v -17 -68 0
v -16 -68 0
v -17 -69 0
v -18 -69 0
v -18 -68 0
v -17 -68 0
v -18 -69 0
v -19 -69 0
v -19 -68 0
v -18 -68 0
v -19 -69 0
v -20 -69 0
v -20 -68 0
v -19 -68 0
v -20 -69 0
v -21 -69 0
v -21 -68 0
v -20 -68 0
v -21 -69 0
v -22 -69 0
v -22 -68 0
v -21 -68 0
v -22 -69 0
v -23 -69 0
v -23 -68 0
v -22 -68 0
v -23 -69 0
v -24 -69 0
v -24 -68 0
v -23 -68 0
v -24 -69 0
v -25 -69 0
v -25 -68 0
v -24 -68 0
v -25 -69 0
v -26 -69 0
v -26 -68 0
v -25 -68 0
v -26 -69 0
v -27 -69 0
v -27 -68 0
v -26 -68 0
v -27 -69 0
v -28 -69 0
v -28 -68 0
v -27 -68 0
v -28 -69 0
v -29 -69 0
v -29 -68 0
v -28 -68 0
v -29 -69 0
v -30 -69 0
v -30 -68 0
v -29 -68 0
v -30 -69 0
v -31 -69 0
v -31 -68 0
v -30 -68 0
v -31 -69 0
v -32 -69 0
v -32 -68 0
v -31 -68 0
v -38 -69 0
v -39 -69 0
v -39 -68 0
v -38 -68 0
v -39 -69 0
v -40 -69 0
v -40 -68 0
v -39 -68 0
v -40 -69 0
v -41 -69 0
v -41 -68 0
v -40 -68 0
v -41 -69 0
v -42 -69 0
v -42 -68 0
v -41 -68 0
v -42 -69 0
v -43 -69 0
v -43 -68 0
v -42 -68 0
v -43 -69 0
v -44 -69 0
v -44 -68 0
v -43 -68 0
v -44 -69 0
v -45 -69 0
v -45 -68 0
v -44 -68 0
v -45 -69 0
v -46 -69 0
v -46 -68 0
v -45 -68 0
v -46 -69 0
v -47 -69 0
v -47 -68 0
v -46 -68 0
v -47 -69 0
v -48 -69 0
v -48 -68 0
v -47 -68 0
v -48 -69 0
v -49 -69 0
v -49 -68 0
v -48 -68 0
v -49 -69 0
v -50 -69 0
v -50 -68 0
v -49 -68 0
v -50 -69 0
v -51 -69 0
v -51 -68 0
v -50 -68 0
v -51 -69 0
v -52 -69 0
v -52 -68 0
v -51 -68 0
v -52 -69 0
v -53 -69 0
v -53 -68 0
v -52 -68 0
v -53 -69 0
v -54 -69 0
v -54 -68 0
v -53 -68 0
v -54 -69 0
v -55 -69 0
v -55 -68 0
v -54 -68 0
v -55 -69 0
v -56 -69 0
v -56 -68 0
v -55 -68 0
v -56 -69 0
v -57 -69 0
v -57 -68 0
v -56 -68 0
v -57 -69 0
v -58 -69 0
v -58 -68 0
v -57 -68 0
v -58 -69 0
v -59 -69 0
v -59 -68 0
v -58 -68 0
v -59 -69 0
v -60 -69 0
v -60 -68 0
v -59 -68 0
v -60 -69 0
v -61 -69 0
v -61 -68 0
v -60 -68 0
v -61 -69 0
v -62 -69 0
v -62 -68 0
v -61 -68 0
v -62 -69 0
v -63 -69 0
v -63 -68 0
v -62 -68 0
v -63 -69 0
v -64 -69 0
v -64 -68 0
v -63 -68 0
v -64 -69 0
v -65 -69 0
v -65 -68 0
v -64 -68 0
v -65 -69 0
v -66 -69 0
v -66 -68 0
v -65 -68 0
v -66 -69 0
v -67 -69 0
v -67 -68 0
v -66 -68 0
v -67 -69 0
v -68 -69 0
v -68 -68 0
v -67 -68 0
v -2 -70 0
v -3 -70 0
v -3 -69 0
v -2 -69 0
v -3 -70 0
v -4 -70 0
v -4 -69 0
v -3 -69 0
v -4 -70 0
v -5 -70 0
v -5 -69 0
v -4 -69 0
v -5 -70 0
v -6 -70 0
v -6 -69 0
v -5 -69 0
v -6 -70 0
v -7 -70 0
v -7 -69 0
v -6 -69 0
v -7 -70 0
v -8 -70 0
v -8 -69 0
v -7 -69 0
v -8 -70 0
v -9 -70 0
v -9 -69 0
v -8 -69 0
v -9 -70 0
v -10 -70 0
v -10 -69 0
v -9 -69 0
v -10 -70 0
v -11 -70 0
v -11 -69 0
v -10 -69 0
v -11 -70 0
v -12 -70 0
v -12 -69 0
v -11 -69 0
v -12 -70 0
v -13 -70 0
v -13 -69 0
v -12 -69 0
v -13 -70 0
v -14 -70 0
v -14 -69 0
v -13 -69 0
v -14 -70 0
v -15 -70 0
v -15 -69 0
v -14 -69 0
v -15 -70 0
v -16 -70 0
v -16 -69 0
v -15 -69 0
v -16 -70 0
v -17 -70 0
v -17 -69 0
v -16 -69 0
v -17 -70 0
v -18 -70 0
v -18 -69 0
v -17 -69 0
v -18 -70 0
v -19 -70 0
v -19 -69 0
v -18 -69 0
v -19 -70 0
v -20 -70 0
v -20 -69 0
v -19 -69 0
v -20 -70 0
v -21 -70 0
v -21 -69 0
v -20 -69 0
v -21 -70 0
v -22 -70 0
v -22 -69 0
v -21 -69 0
v -22 -70 0
v -23 -70 0
v -23 -69 0
v -22 -69 0
v -23 -70 0
v -24 -70 0
v -24 -69 0
v -23 -69 0
v -24 -70 0
v -25 -70 0
v -25 -69 0
v -24 -69 0
v -25 -70 0
v -26 -70 0
v -26 -69 0
v -25 -69 0
v -26 -70 0
v -27 -70 0
v -27 -69 0
v -26 -69 0
v -27 -70 0
v -28 -70 0
v -28 -69 0
v -27 -69 0
v -28 -70 0
v -29 -70 0
v -29 -69 0
v -28 -69 0
v -29 -70 0
v -30 -70 0
v -30 -69 0
v -29 -69 0
v -30 -70 0
v -31 -70 0
v -31 -69 0
v -30 -69 0
v -31 -70 0
v -32 -70 0
v -32 -69 0
v -31 -69 0
v -38 -70 0
v -39 -70 0
v -39 -69 0
v -38 -69 0
v -39 -70 0
v -40 -70 0
v -40 -69 0
v -39 -69 0
v -40 -70 0
v -41 -70 0
v -41 -69 0
v -40 -69 0
v -41 -70 0
v -42 -70 0
v -42 -69 0
v -41 -69 0
v -42 -70 0
v -43 -70 0
v -43 -69 0
v -42 -69 0
v -43 -70 0
v -44 -70 0
v -44 -69 0
v -43 -69 0
v -44 -70 0
v -45 -70 0
v -45 -69 0
v -44 -69 0
v -45 -70 0
v -46 -70 0
v -46 -69 0
v -45 -69 0
v -46 -70 0
v -47 -70 0
v -47 -69 0
v -46 -69 0
v -47 -70 0
v -48 -70 0
v -48 -69 0
v -47 -69 0
v -48 -70 0
v -49 -70 0
v -49 -69 0
v -48 -69 0
v -49 -70 0
v -50 -70 0
v -50 -69 0
v -49 -69 0
v -50 -70 0
v -51 -70 0
v -51 -69 0
v -50 -69 0
v -51 -70 0
v -52 -70 0
v -52 -69 0
v -51 -69 0
v -52 -70 0
v -53 -70 0
v -53 -69 0
v -52 -69 0
v -53 -70 0
v -54 -70 0
v -54 -69 0
v -53 -69 0
v -54 -70 0
v -55 -70 0
v -55 -69 0
v -54 -69 0
v -55 -70 0
v -56 -70 0
v -56 -69 0
v -55 -69 0
v -56 -70 0
v -57 -70 0
v -57 -69 0
v -56 -69 0
v -57 -70 0
v -58 -70 0
v -58 -69 0
v -57 -69 0
v -58 -70 0
v -59 -70 0
v -59 -69 0
v -58 -69 0
v -59 -70 0
v -60 -70 0
v -60 -69 0
v -59 -69 0
v -60 -70 0
v -61 -70 0
v -61 -69 0
v -60 -69 0
v -61 -70 0
v -62 -70 0
v -62 -69 0
v -61 -69 0
v -62 -70 0
v -63 -70 0
v -63 -69 0
v -62 -69 0
v -63 -70 0
v -64 -70 0
v -64 -69 0
v -63 -69 0
v -64 -70 0
v -65 -70 0
v -65 -69 0
v -64 -69 0
v -65 -70 0
v -66 -70 0
v -66 -69 0
v -65 -69 0
v -66 -70 0
v -67 -70 0
v -67 -69 0
v -66 -69 0
v -67 -70 0
v -68 -70 0
v -68 -69 0
v -67 -69 0

# Texture cooridinates (Count = 19)
vt 0.6086956 0.96875
vt 0.6521739 0.96875
vt 0.6521739 1
vt 0.6086956 1
vt 0.5652174 0.96875
vt 0.5652174 1
vt 0.4782609 0.5
vt 0.5217391 0.5
vt 0.5217391 0.53125
vt 0.4782609 0.53125
vt 0.4782609 0.84375
vt 0.5217391 0.84375
vt 0.5217391 0.875
vt 0.4782609 0.875
vt 0.5652174 0.84375
vt 0.5652174 0.875
vt 0.4782609 0.8125
vt 0.5217391 0.8125
vt 0.5652174 0.8125

# Normal
vn 0 0 -1

# Mesh description
g center_village_mesh_0003

# Faces
f 1/1/1 2/2/1 3/3/1 4/4/1
f 5/5/1 6/1/1 7/4/1 8/6/1
f 9/1/1 10/2/1 11/3/1 12/4/1
f 13/5/1 14/1/1 15/4/1 16/6/1
f 17/1/1 18/2/1 19/3/1 20/4/1
f 21/5/1 22/1/1 23/4/1 24/6/1
f 25/1/1 26/2/1 27/3/1 28/4/1
f 29/5/1 30/1/1 31/4/1 32/6/1
f 33/1/1 34/2/1 35/3/1 36/4/1
f 37/5/1 38/1/1 39/4/1 40/6/1
f 41/1/1 42/2/1 43/3/1 44/4/1
f 45/5/1 46/1/1 47/4/1 48/6/1
f 49/5/1 50/1/1 51/4/1 52/6/1
f 53/5/1 54/1/1 55/4/1 56/6/1
f 57/1/1 58/2/1 59/3/1 60/4/1
f 61/5/1 62/1/1 63/4/1 64/6/1
f 65/1/1 66/2/1 67/3/1 68/4/1
f 69/5/1 70/1/1 71/4/1 72/6/1
f 73/1/1 74/2/1 75/3/1 76/4/1
f 77/1/1 78/2/1 79/3/1 80/4/1
f 81/7/1 82/8/1 83/9/1 84/10/1
f 85/7/1 86/8/1 87/9/1 88/10/1
f 89/7/1 90/8/1 91/9/1 92/10/1
f 93/7/1 94/8/1 95/9/1 96/10/1
f 97/7/1 98/8/1 99/9/1 100/10/1
f 101/7/1 102/8/1 103/9/1 104/10/1
f 105/1/1 106/2/1 107/3/1 108/4/1
f 109/7/1 110/8/1 111/9/1 112/10/1
f 113/7/1 114/8/1 115/9/1 116/10/1
f 117/5/1 118/1/1 119/4/1 120/6/1
f 121/1/1 122/2/1 123/3/1 124/4/1
f 125/7/1 126/8/1 127/9/1 128/10/1
f 129/7/1 130/8/1 131/9/1 132/10/1
f 133/5/1 134/1/1 135/4/1 136/6/1
f 137/11/1 138/12/1 139/13/1 140/14/1
f 141/12/1 142/15/1 143/16/1 144/13/1
f 145/11/1 146/12/1 147/13/1 148/14/1
f 149/12/1 150/15/1 151/16/1 152/13/1
f 153/11/1 154/12/1 155/13/1 156/14/1
f 157/12/1 158/15/1 159/16/1 160/13/1
f 161/11/1 162/12/1 163/13/1 164/14/1
f 165/12/1 166/15/1 167/16/1 168/13/1
f 169/11/1 170/12/1 171/13/1 172/14/1
f 173/12/1 174/15/1 175/16/1 176/13/1
f 177/11/1 178/12/1 179/13/1 180/14/1
f 181/12/1 182/15/1 183/16/1 184/13/1
f 185/11/1 186/12/1 187/13/1 188/14/1
f 189/12/1 190/15/1 191/16/1 192/13/1
f 193/11/1 194/12/1 195/13/1 196/14/1
f 197/12/1 198/15/1 199/16/1 200/13/1
f 201/11/1 202/12/1 203/13/1 204/14/1
f 205/12/1 206/15/1 207/16/1 208/13/1
f 209/11/1 210/12/1 211/13/1 212/14/1
f 213/12/1 214/15/1 215/16/1 216/13/1
f 217/11/1 218/12/1 219/13/1 220/14/1
f 221/12/1 222/15/1 223/16/1 224/13/1
f 225/11/1 226/12/1 227/13/1 228/14/1
f 229/12/1 230/15/1 231/16/1 232/13/1
f 233/11/1 234/12/1 235/13/1 236/14/1
f 237/12/1 238/15/1 239/16/1 240/13/1
f 241/11/1 242/12/1 243/13/1 244/14/1
f 245/12/1 246/15/1 247/16/1 248/13/1
f 249/11/1 250/12/1 251/13/1 252/14/1
f 253/12/1 254/15/1 255/16/1 256/13/1
f 257/11/1 258/12/1 259/13/1 260/14/1
f 261/12/1 262/15/1 263/16/1 264/13/1
f 265/11/1 266/12/1 267/13/1 268/14/1
f 269/12/1 270/15/1 271/16/1 272/13/1
f 273/11/1 274/12/1 275/13/1 276/14/1
f 277/12/1 278/15/1 279/16/1 280/13/1
f 281/11/1 282/12/1 283/13/1 284/14/1
f 285/12/1 286/15/1 287/16/1 288/13/1
f 289/11/1 290/12/1 291/13/1 292/14/1
f 293/12/1 294/15/1 295/16/1 296/13/1
f 297/11/1 298/12/1 299/13/1 300/14/1
f 301/12/1 302/15/1 303/16/1 304/13/1
f 305/11/1 306/12/1 307/13/1 308/14/1
f 309/12/1 310/15/1 311/16/1 312/13/1
f 313/11/1 314/12/1 315/13/1 316/14/1
f 317/12/1 318/15/1 319/16/1 320/13/1
f 321/11/1 322/12/1 323/13/1 324/14/1
f 325/12/1 326/15/1 327/16/1 328/13/1
f 329/11/1 330/12/1 331/13/1 332/14/1
f 333/12/1 334/15/1 335/16/1 336/13/1
f 337/11/1 338/12/1 339/13/1 340/14/1
f 341/12/1 342/15/1 343/16/1 344/13/1
f 345/11/1 346/12/1 347/13/1 348/14/1
f 349/12/1 350/15/1 351/16/1 352/13/1
f 353/11/1 354/12/1 355/13/1 356/14/1
f 357/12/1 358/15/1 359/16/1 360/13/1
f 361/11/1 362/12/1 363/13/1 364/14/1
f 365/12/1 366/15/1 367/16/1 368/13/1
f 369/11/1 370/12/1 371/13/1 372/14/1
f 373/12/1 374/15/1 375/16/1 376/13/1
f 377/17/1 378/18/1 379/12/1 380/11/1
f 381/18/1 382/19/1 383/15/1 384/12/1
f 385/17/1 386/18/1 387/12/1 388/11/1
f 389/18/1 390/19/1 391/15/1 392/12/1
f 393/17/1 394/18/1 395/12/1 396/11/1
f 397/18/1 398/19/1 399/15/1 400/12/1
f 401/17/1 402/18/1 403/12/1 404/11/1
f 405/18/1 406/19/1 407/15/1 408/12/1
f 409/17/1 410/18/1 411/12/1 412/11/1
f 413/18/1 414/19/1 415/15/1 416/12/1
f 417/17/1 418/18/1 419/12/1 420/11/1
f 421/18/1 422/19/1 423/15/1 424/12/1
f 425/17/1 426/18/1 427/12/1 428/11/1
f 429/18/1 430/19/1 431/15/1 432/12/1
f 433/17/1 434/18/1 435/12/1 436/11/1
f 437/18/1 438/19/1 439/15/1 440/12/1
f 441/17/1 442/18/1 443/12/1 444/11/1
f 445/18/1 446/19/1 447/15/1 448/12/1
f 449/17/1 450/18/1 451/12/1 452/11/1
f 453/18/1 454/19/1 455/15/1 456/12/1
f 457/17/1 458/18/1 459/12/1 460/11/1
f 461/18/1 462/19/1 463/15/1 464/12/1
f 465/17/1 466/18/1 467/12/1 468/11/1
f 469/18/1 470/19/1 471/15/1 472/12/1
f 473/17/1 474/18/1 475/12/1 476/11/1
f 477/18/1 478/19/1 479/15/1 480/12/1
f 481/17/1 482/18/1 483/12/1 484/11/1
f 485/18/1 486/19/1 487/15/1 488/12/1
f 489/17/1 490/18/1 491/12/1 492/11/1
f 493/18/1 494/19/1 495/15/1 496/12/1
f 497/17/1 498/18/1 499/12/1 500/11/1
f 501/18/1 502/19/1 503/15/1 504/12/1
f 505/17/1 506/18/1 507/12/1 508/11/1
f 509/18/1 510/19/1 511/15/1 512/12/1
f 513/17/1 514/18/1 515/12/1 516/11/1
f 517/18/1 518/19/1 519/15/1 520/12/1
f 521/17/1 522/18/1 523/12/1 524/11/1
f 525/18/1 526/19/1 527/15/1 528/12/1
f 529/17/1 530/18/1 531/12/1 532/11/1
f 533/18/1 534/19/1 535/15/1 536/12/1
f 537/17/1 538/18/1 539/12/1 540/11/1
f 541/18/1 542/19/1 543/15/1 544/12/1
f 545/17/1 546/18/1 547/12/1 548/11/1
f 549/18/1 550/19/1 551/15/1 552/12/1
f 553/17/1 554/18/1 555/12/1 556/11/1
f 557/18/1 558/19/1 559/15/1 560/12/1
f 561/17/1 562/18/1 563/12/1 564/11/1
f 565/18/1 566/19/1 567/15/1 568/12/1
f 569/17/1 570/18/1 571/12/1 572/11/1
f 573/18/1 574/19/1 575/15/1 576/12/1
f 577/17/1 578/18/1 579/12/1 580/11/1
f 581/18/1 582/19/1 583/15/1 584/12/1
f 585/17/1 586/18/1 587/12/1 588/11/1
f 589/18/1 590/19/1 591/15/1 592/12/1
f 593/17/1 594/18/1 595/12/1 596/11/1
f 597/18/1 598/19/1 599/15/1 600/12/1
f 601/17/1 602/18/1 603/12/1 604/11/1
f 605/18/1 606/19/1 607/15/1 608/12/1
f 609/17/1 610/18/1 611/12/1 612/11/1
f 613/18/1 614/19/1 615/15/1 616/12/1

