# Tiled2Unity generated file. Do not modify by hand.
# Wavefront file for 'center_village_mesh_0011.obj'

# Vertices (Count = 296)
v -44 -4 0
v -45 -4 0
v -45 -3 0
v -44 -3 0
v -45 -4 0
v -46 -4 0
v -46 -3 0
v -45 -3 0
v -41 -5 0
v -42 -5 0
v -42 -4 0
v -41 -4 0
v -42 -5 0
v -43 -5 0
v -43 -4 0
v -42 -4 0
v -44 -5 0
v -45 -5 0
v -45 -4 0
v -44 -4 0
v -45 -5 0
v -46 -5 0
v -46 -4 0
v -45 -4 0
v -64 -5 0
v -65 -5 0
v -65 -4 0
v -64 -4 0
v -65 -5 0
v -66 -5 0
v -66 -4 0
v -65 -4 0
v -66 -5 0
v -67 -5 0
v -67 -4 0
v -66 -4 0
v -67 -5 0
v -68 -5 0
v -68 -4 0
v -67 -4 0
v -41 -6 0
v -42 -6 0
v -42 -5 0
v -41 -5 0
v -42 -6 0
v -43 -6 0
v -43 -5 0
v -42 -5 0
v -64 -6 0
v -65 -6 0
v -65 -5 0
v -64 -5 0
v -65 -6 0
v -66 -6 0
v -66 -5 0
v -65 -5 0
v -66 -6 0
v -67 -6 0
v -67 -5 0
v -66 -5 0
v -67 -6 0
v -68 -6 0
v -68 -5 0
v -67 -5 0
v -64 -7 0
v -65 -7 0
v -65 -6 0
v -64 -6 0
v -65 -7 0
v -66 -7 0
v -66 -6 0
v -65 -6 0
v -66 -7 0
v -67 -7 0
v -67 -6 0
v -66 -6 0
v -67 -7 0
v -68 -7 0
v -68 -6 0
v -67 -6 0
v -64 -8 0
v -65 -8 0
v -65 -7 0
v -64 -7 0
v -65 -8 0
v -66 -8 0
v -66 -7 0
v -65 -7 0
v -66 -8 0
v -67 -8 0
v -67 -7 0
v -66 -7 0
v -67 -8 0
v -68 -8 0
v -68 -7 0
v -67 -7 0
v -45 -45 0
v -46 -45 0
v -46 -44 0
v -45 -44 0
v -46 -45 0
v -47 -45 0
v -47 -44 0
v -46 -44 0
v -47 -45 0
v -48 -45 0
v -48 -44 0
v -47 -44 0
v -48 -45 0
v -49 -45 0
v -49 -44 0
v -48 -44 0
v -49 -45 0
v -50 -45 0
v -50 -44 0
v -49 -44 0
v -50 -45 0
v -51 -45 0
v -51 -44 0
v -50 -44 0
v -45 -46 0
v -46 -46 0
v -46 -45 0
v -45 -45 0
v -46 -46 0
v -47 -46 0
v -47 -45 0
v -46 -45 0
v -47 -46 0
v -48 -46 0
v -48 -45 0
v -47 -45 0
v -48 -46 0
v -49 -46 0
v -49 -45 0
v -48 -45 0
v -49 -46 0
v -50 -46 0
v -50 -45 0
v -49 -45 0
v -50 -46 0
v -51 -46 0
v -51 -45 0
v -50 -45 0
v -43 -47 0
v -44 -47 0
v -44 -46 0
v -43 -46 0
v -44 -47 0
v -45 -47 0
v -45 -46 0
v -44 -46 0
v -45 -47 0
v -46 -47 0
v -46 -46 0
v -45 -46 0
v -46 -47 0
v -47 -47 0
v -47 -46 0
v -46 -46 0
v -47 -47 0
v -48 -47 0
v -48 -46 0
v -47 -46 0
v -48 -47 0
v -49 -47 0
v -49 -46 0
v -48 -46 0
v -49 -47 0
v -50 -47 0
v -50 -46 0
v -49 -46 0
v -50 -47 0
v -51 -47 0
v -51 -46 0
v -50 -46 0
v -42 -48 0
v -43 -48 0
v -43 -47 0
v -42 -47 0
v -43 -48 0
v -44 -48 0
v -44 -47 0
v -43 -47 0
v -44 -48 0
v -45 -48 0
v -45 -47 0
v -44 -47 0
v -45 -48 0
v -46 -48 0
v -46 -47 0
v -45 -47 0
v -47 -48 0
v -48 -48 0
v -48 -47 0
v -47 -47 0
v -48 -48 0
v -49 -48 0
v -49 -47 0
v -48 -47 0
v -50 -48 0
v -51 -48 0
v -51 -47 0
v -50 -47 0
v -51 -48 0
v -52 -48 0
v -52 -47 0
v -51 -47 0
v -52 -48 0
v -53 -48 0
v -53 -47 0
v -52 -47 0
v -53 -48 0
v -54 -48 0
v -54 -47 0
v -53 -47 0
v -42 -49 0
v -43 -49 0
v -43 -48 0
v -42 -48 0
v -43 -49 0
v -44 -49 0
v -44 -48 0
v -43 -48 0
v -44 -49 0
v -45 -49 0
v -45 -48 0
v -44 -48 0
v -45 -49 0
v -46 -49 0
v -46 -48 0
v -45 -48 0
v -50 -49 0
v -51 -49 0
v -51 -48 0
v -50 -48 0
v -51 -49 0
v -52 -49 0
v -52 -48 0
v -51 -48 0
v -52 -49 0
v -53 -49 0
v -53 -48 0
v -52 -48 0
v -53 -49 0
v -54 -49 0
v -54 -48 0
v -53 -48 0
v -42 -50 0
v -43 -50 0
v -43 -49 0
v -42 -49 0
v -43 -50 0
v -44 -50 0
v -44 -49 0
v -43 -49 0
v -44 -50 0
v -45 -50 0
v -45 -49 0
v -44 -49 0
v -45 -50 0
v -46 -50 0
v -46 -49 0
v -45 -49 0
v -50 -50 0
v -51 -50 0
v -51 -49 0
v -50 -49 0
v -51 -50 0
v -52 -50 0
v -52 -49 0
v -51 -49 0
v -52 -50 0
v -53 -50 0
v -53 -49 0
v -52 -49 0
v -53 -50 0
v -54 -50 0
v -54 -49 0
v -53 -49 0
v -50 -51 0
v -51 -51 0
v -51 -50 0
v -50 -50 0
v -51 -51 0
v -52 -51 0
v -52 -50 0
v -51 -50 0
v -52 -51 0
v -53 -51 0
v -53 -50 0
v -52 -50 0
v -53 -51 0
v -54 -51 0
v -54 -50 0
v -53 -50 0

# Texture cooridinates (Count = 103)
vt 0.03125 0.609375
vt 0.046875 0.609375
vt 0.046875 0.625
vt 0.03125 0.625
vt 0.0625 0.609375
vt 0.0625 0.625
vt 0.03125 0.59375
vt 0.046875 0.59375
vt 0.0625 0.59375
vt 0.09375 0.640625
vt 0.109375 0.640625
vt 0.109375 0.65625
vt 0.09375 0.65625
vt 0.125 0.640625
vt 0.125 0.65625
vt 0.140625 0.640625
vt 0.140625 0.65625
vt 0.15625 0.640625
vt 0.15625 0.65625
vt 0.09375 0.625
vt 0.109375 0.625
vt 0.125 0.625
vt 0.140625 0.625
vt 0.15625 0.625
vt 0.09375 0.609375
vt 0.109375 0.609375
vt 0.125 0.609375
vt 0.140625 0.609375
vt 0.15625 0.609375
vt 0.09375 0.59375
vt 0.109375 0.59375
vt 0.125 0.59375
vt 0.140625 0.59375
vt 0.15625 0.59375
vt 0.1875 0.546875
vt 0.203125 0.546875
vt 0.203125 0.5625
vt 0.1875 0.5625
vt 0.21875 0.546875
vt 0.21875 0.5625
vt 0.234375 0.546875
vt 0.234375 0.5625
vt 0.25 0.546875
vt 0.25 0.5625
vt 0.1875 0.5
vt 0.203125 0.5
vt 0.203125 0.515625
vt 0.1875 0.515625
vt 0.21875 0.5
vt 0.21875 0.515625
vt 0.234375 0.5
vt 0.234375 0.515625
vt 0.25 0.5
vt 0.25 0.515625
vt 0.109375 0.515625
vt 0.125 0.515625
vt 0.125 0.53125
vt 0.109375 0.53125
vt 0.140625 0.515625
vt 0.140625 0.53125
vt 0.1875 0.484375
vt 0.203125 0.484375
vt 0.21875 0.484375
vt 0.234375 0.484375
vt 0.25 0.484375
vt 0.09375 0.5
vt 0.109375 0.5
vt 0.09375 0.515625
vt 0.125 0.5
vt 0.140625 0.5
vt 0.1875 0.46875
vt 0.203125 0.46875
vt 0.21875 0.46875
vt 0.234375 0.46875
vt 0.25 0.46875
vt 0.109375 0.578125
vt 0.125 0.578125
vt 0.140625 0.578125
vt 0.15625 0.578125
vt 0.09375 0.484375
vt 0.109375 0.484375
vt 0.125 0.484375
vt 0.140625 0.484375
vt 0.15625 0.484375
vt 0.15625 0.5
vt 0.09375 0.5625
vt 0.109375 0.5625
vt 0.09375 0.578125
vt 0.125 0.5625
vt 0.140625 0.5625
vt 0.15625 0.5625
vt 0.09375 0.46875
vt 0.109375 0.46875
vt 0.125 0.46875
vt 0.140625 0.46875
vt 0.15625 0.46875
vt 0.09375 0.546875
vt 0.109375 0.546875
vt 0.125 0.546875
vt 0.140625 0.546875
vt 0.15625 0.546875
vt 0.09375 0.53125
vt 0.15625 0.53125

# Normal
vn 0 0 -1

# Mesh description
g center_village_mesh_0011

# Faces
f 1/1/1 2/2/1 3/3/1 4/4/1
f 5/2/1 6/5/1 7/6/1 8/3/1
f 9/1/1 10/2/1 11/3/1 12/4/1
f 13/2/1 14/5/1 15/6/1 16/3/1
f 17/7/1 18/8/1 19/2/1 20/1/1
f 21/8/1 22/9/1 23/5/1 24/2/1
f 25/10/1 26/11/1 27/12/1 28/13/1
f 29/11/1 30/14/1 31/15/1 32/12/1
f 33/14/1 34/16/1 35/17/1 36/15/1
f 37/16/1 38/18/1 39/19/1 40/17/1
f 41/7/1 42/8/1 43/2/1 44/1/1
f 45/8/1 46/9/1 47/5/1 48/2/1
f 49/20/1 50/21/1 51/11/1 52/10/1
f 53/21/1 54/22/1 55/14/1 56/11/1
f 57/22/1 58/23/1 59/16/1 60/14/1
f 61/23/1 62/24/1 63/18/1 64/16/1
f 65/25/1 66/26/1 67/21/1 68/20/1
f 69/26/1 70/27/1 71/22/1 72/21/1
f 73/27/1 74/28/1 75/23/1 76/22/1
f 77/28/1 78/29/1 79/24/1 80/23/1
f 81/30/1 82/31/1 83/26/1 84/25/1
f 85/31/1 86/32/1 87/27/1 88/26/1
f 89/32/1 90/33/1 91/28/1 92/27/1
f 93/33/1 94/34/1 95/29/1 96/28/1
f 97/35/1 98/36/1 99/37/1 100/38/1
f 101/36/1 102/39/1 103/40/1 104/37/1
f 105/39/1 106/41/1 107/42/1 108/40/1
f 109/36/1 110/39/1 111/40/1 112/37/1
f 113/39/1 114/41/1 115/42/1 116/40/1
f 117/41/1 118/43/1 119/44/1 120/42/1
f 121/45/1 122/46/1 123/47/1 124/48/1
f 125/46/1 126/49/1 127/50/1 128/47/1
f 129/49/1 130/51/1 131/52/1 132/50/1
f 133/46/1 134/49/1 135/50/1 136/47/1
f 137/49/1 138/51/1 139/52/1 140/50/1
f 141/51/1 142/53/1 143/54/1 144/52/1
f 145/55/1 146/56/1 147/57/1 148/58/1
f 149/56/1 150/59/1 151/60/1 152/57/1
f 153/61/1 154/62/1 155/46/1 156/45/1
f 157/62/1 158/63/1 159/49/1 160/46/1
f 161/63/1 162/64/1 163/51/1 164/49/1
f 165/62/1 166/63/1 167/49/1 168/46/1
f 169/63/1 170/64/1 171/51/1 172/49/1
f 173/64/1 174/65/1 175/53/1 176/51/1
f 177/66/1 178/67/1 179/55/1 180/68/1
f 181/67/1 182/69/1 183/56/1 184/55/1
f 185/69/1 186/70/1 187/59/1 188/56/1
f 189/71/1 190/72/1 191/62/1 192/61/1
f 193/72/1 194/73/1 195/63/1 196/62/1
f 197/73/1 198/74/1 199/64/1 200/63/1
f 201/74/1 202/75/1 203/65/1 204/64/1
f 205/76/1 206/77/1 207/32/1 208/31/1
f 209/77/1 210/78/1 211/33/1 212/32/1
f 213/78/1 214/79/1 215/34/1 216/33/1
f 217/80/1 218/81/1 219/67/1 220/66/1
f 221/81/1 222/82/1 223/69/1 224/67/1
f 225/82/1 226/83/1 227/70/1 228/69/1
f 229/83/1 230/84/1 231/85/1 232/70/1
f 233/86/1 234/87/1 235/76/1 236/88/1
f 237/87/1 238/89/1 239/77/1 240/76/1
f 241/89/1 242/90/1 243/78/1 244/77/1
f 245/90/1 246/91/1 247/79/1 248/78/1
f 249/92/1 250/93/1 251/81/1 252/80/1
f 253/93/1 254/94/1 255/82/1 256/81/1
f 257/94/1 258/95/1 259/83/1 260/82/1
f 261/95/1 262/96/1 263/84/1 264/83/1
f 265/97/1 266/98/1 267/87/1 268/86/1
f 269/98/1 270/99/1 271/89/1 272/87/1
f 273/99/1 274/100/1 275/90/1 276/89/1
f 277/100/1 278/101/1 279/91/1 280/90/1
f 281/102/1 282/58/1 283/98/1 284/97/1
f 285/58/1 286/57/1 287/99/1 288/98/1
f 289/57/1 290/60/1 291/100/1 292/99/1
f 293/60/1 294/103/1 295/101/1 296/100/1

