# Tiled2Unity generated file. Do not modify by hand.
# Wavefront file for 'center_village_mesh_0004.obj'

# Vertices (Count = 96)
v -56 -45 0
v -58 -45 0
v -58 -43 0
v -56 -43 0
v -58 -45 0
v -60 -45 0
v -60 -43 0
v -58 -43 0
v -60 -45 0
v -62 -45 0
v -62 -43 0
v -60 -43 0
v -62 -45 0
v -64 -45 0
v -64 -43 0
v -62 -43 0
v -64 -45 0
v -66 -45 0
v -66 -43 0
v -64 -43 0
v -56 -47 0
v -58 -47 0
v -58 -45 0
v -56 -45 0
v -64 -47 0
v -66 -47 0
v -66 -45 0
v -64 -45 0
v -56 -49 0
v -58 -49 0
v -58 -47 0
v -56 -47 0
v -59 -49 0
v -61 -49 0
v -61 -47 0
v -59 -47 0
v -61 -49 0
v -63 -49 0
v -63 -47 0
v -61 -47 0
v -64 -49 0
v -66 -49 0
v -66 -47 0
v -64 -47 0
v -56 -51 0
v -58 -51 0
v -58 -49 0
v -56 -49 0
v -59 -51 0
v -61 -51 0
v -61 -49 0
v -59 -49 0
v -61 -51 0
v -63 -51 0
v -63 -49 0
v -61 -49 0
v -64 -51 0
v -66 -51 0
v -66 -49 0
v -64 -49 0
v -56 -53 0
v -58 -53 0
v -58 -51 0
v -56 -51 0
v -64 -53 0
v -66 -53 0
v -66 -51 0
v -64 -51 0
v -56 -55 0
v -58 -55 0
v -58 -53 0
v -56 -53 0
v -64 -55 0
v -66 -55 0
v -66 -53 0
v -64 -53 0
v -56 -57 0
v -58 -57 0
v -58 -55 0
v -56 -55 0
v -58 -57 0
v -60 -57 0
v -60 -55 0
v -58 -55 0
v -60 -57 0
v -62 -57 0
v -62 -55 0
v -60 -55 0
v -62 -57 0
v -64 -57 0
v -64 -55 0
v -62 -55 0
v -64 -57 0
v -66 -57 0
v -66 -55 0
v -64 -55 0

# Texture cooridinates (Count = 22)
vt 0 0.625
vt 0.1666667 0.625
vt 0.1666667 0.75
vt 0 0.75
vt 0.3333333 0.625
vt 0.3333333 0.75
vt 0.5 0.625
vt 0.5 0.75
vt 0 0.5
vt 0.1666667 0.5
vt 0.3333333 0.5
vt 0.5 0.5
vt 0.1666667 0.875
vt 0.3333333 0.875
vt 0.3333333 1
vt 0.1666667 1
vt 0.5 0.875
vt 0.5 1
vt 0 0.375
vt 0.1666667 0.375
vt 0.3333333 0.375
vt 0.5 0.375

# Normal
vn 0 0 -1

# Mesh description
g center_village_mesh_0004

# Faces
f 1/1/1 2/2/1 3/3/1 4/4/1
f 5/2/1 6/5/1 7/6/1 8/3/1
f 9/2/1 10/5/1 11/6/1 12/3/1
f 13/2/1 14/5/1 15/6/1 16/3/1
f 17/5/1 18/7/1 19/8/1 20/6/1
f 21/9/1 22/10/1 23/2/1 24/1/1
f 25/11/1 26/12/1 27/7/1 28/5/1
f 29/9/1 30/10/1 31/2/1 32/1/1
f 33/13/1 34/14/1 35/15/1 36/16/1
f 37/14/1 38/17/1 39/18/1 40/15/1
f 41/11/1 42/12/1 43/7/1 44/5/1
f 45/9/1 46/10/1 47/2/1 48/1/1
f 49/3/1 50/6/1 51/14/1 52/13/1
f 53/6/1 54/8/1 55/17/1 56/14/1
f 57/11/1 58/12/1 59/7/1 60/5/1
f 61/9/1 62/10/1 63/2/1 64/1/1
f 65/11/1 66/12/1 67/7/1 68/5/1
f 69/9/1 70/10/1 71/2/1 72/1/1
f 73/11/1 74/12/1 75/7/1 76/5/1
f 77/19/1 78/20/1 79/10/1 80/9/1
f 81/20/1 82/21/1 83/11/1 84/10/1
f 85/20/1 86/21/1 87/11/1 88/10/1
f 89/20/1 90/21/1 91/11/1 92/10/1
f 93/21/1 94/22/1 95/12/1 96/11/1

