# Tiled2Unity generated file. Do not modify by hand.
# Wavefront file for 'center_village_mesh_0014.obj'

# Vertices (Count = 24)
v -33 -33 0
v -35 -33 0
v -35 -31 0
v -33 -31 0
v -35 -33 0
v -37 -33 0
v -37 -31 0
v -35 -31 0
v -33 -35 0
v -35 -35 0
v -35 -33 0
v -33 -33 0
v -35 -35 0
v -37 -35 0
v -37 -33 0
v -35 -33 0
v -33 -37 0
v -35 -37 0
v -35 -35 0
v -33 -35 0
v -35 -37 0
v -37 -37 0
v -37 -35 0
v -35 -35 0

# Texture cooridinates (Count = 12)
vt 0.5 0.6666666
vt 0.75 0.6666666
vt 0.75 1
vt 0.5 1
vt 1 0.6666666
vt 1 1
vt 0.5 0.3333333
vt 0.75 0.3333333
vt 1 0.3333333
vt 0.5 0
vt 0.75 0
vt 1 0

# Normal
vn 0 0 -1

# Mesh description
g center_village_mesh_0014

# Faces
f 1/1/1 2/2/1 3/3/1 4/4/1
f 5/2/1 6/5/1 7/6/1 8/3/1
f 9/7/1 10/8/1 11/2/1 12/1/1
f 13/8/1 14/9/1 15/5/1 16/2/1
f 17/10/1 18/11/1 19/8/1 20/7/1
f 21/11/1 22/12/1 23/9/1 24/8/1

